<?xml version="1.0" encoding="UTF-8"?>
<svg id="Layer_2" data-name="Layer 2" xmlns="http://www.w3.org/2000/svg" viewBox="0 0 520.12 496.77">
  <defs>
    <style>
      .cls-1 {
        fill: #6b6067;
      }

      .cls-2 {
        fill: #2b1e2b;
      }

      .cls-3 {
        fill: #756d71;
      }

      .cls-4 {
        fill: #261a26;
      }
    </style>
  </defs>
  <g id="Layer_2-2" data-name="Layer 2">
    <g id="boulder">
      <g>
        <path class="cls-3" d="M290.94,494.77c-6.65,0-13.3-.95-20.34-1.96l-2.15-.31c-12.07-1.97-25.67-3.9-40.08-5.95-23.47-3.33-47.74-6.77-67.65-10.74-12.6-3.07-20.62-9.19-31.71-17.68l-2.05-1.57c-4.06-3.17-8.53-6.65-13.14-10.23-7.21-5.61-14.74-11.47-21.6-16.84l-5.91-4.61c-8.45-6.58-17.18-13.39-25.46-19.92-13.07-10.16-22.59-18.62-26.18-35.09-5.69-22.7-11.68-48.71-17.46-73.86-3.6-15.66-7.01-30.45-10.27-44.14l-.46-2.07c-2.23-9.98-4.76-21.29-4.1-27.58l.02-.29c.63-8.21,3.84-16.39,6.95-24.29.73-1.85,1.45-3.69,2.14-5.53,5.91-14.75,13.22-33.34,20.96-53.02,10.55-26.83,21.45-54.57,29.07-73.17,1.96-4.7,4.21-9.56,7.42-13.21,4.97-4.72,9.62-5.71,16.65-7.19,1.87-.4,3.99-.84,6.26-1.4,20.37-3.83,47.95-9.84,77.14-16.19,43.65-9.5,93.11-20.28,124.5-24.93,7.85.34,12.67,2.66,20.62,6.48,1.39.67,2.87,1.38,4.46,2.12,12.48,6.27,27.19,13.58,42.76,21.31,27.59,13.71,56.12,27.88,78.19,39.22,8.46,4.53,14.14,8.71,18.02,16.61,9.55,22.05,21.1,53.71,32.28,84.32,7.05,19.31,13.7,37.54,19.58,52.61.64,1.85,1.36,3.78,2.07,5.71,2.8,7.56,5.7,15.37,5.67,23.12-.62,7.86-3.04,13.47-6.37,21.23-.84,1.95-1.73,4.02-2.66,6.28-7.29,16.77-17.18,39.64-27.65,63.84-10.26,23.72-20.72,47.92-28.85,66.61-9.97,23.95-13.27,28.44-36.5,37.37-11.57,4.52-24.2,9.63-37.57,15.04-24.07,9.74-48.95,19.81-69.68,27.24-5.15,1.79-10.68,2.66-16.91,2.66Z"/>
        <path class="cls-2" d="M293.58,5.01c7.33.36,12,2.6,19.65,6.28,1.38.66,2.85,1.37,4.43,2.11,12.53,6.29,27.22,13.59,42.78,21.32,27.57,13.7,56.07,27.86,78.12,39.18,8.09,4.33,13.49,8.29,17.13,15.64,9.56,22.08,21.08,53.66,32.23,84.2,7.04,19.29,13.69,37.51,19.57,52.59.67,1.93,1.39,3.87,2.09,5.75,2.86,7.7,5.56,14.98,5.54,22.34-.61,7.5-2.96,12.97-6.21,20.52-.85,1.97-1.72,4.01-2.65,6.27-7.28,16.74-17.12,39.49-27.53,63.57-10.23,23.66-20.81,48.12-28.97,66.88,0,.02-.02.04-.02.06-9.82,23.58-12.72,27.55-35.38,36.25-11.56,4.52-24.19,9.63-37.57,15.04-24.05,9.73-48.92,19.8-69.58,27.2-4.95,1.72-10.27,2.55-16.27,2.55-6.51,0-13.09-.94-20.06-1.94l-2.11-.3c-12.12-1.98-25.73-3.91-40.13-5.95-23.41-3.32-47.61-6.75-67.45-10.7-12.23-2.99-19.69-8.7-30.96-17.32l-2.02-1.54c-4.06-3.17-8.51-6.63-13.09-10.2-7.27-5.66-14.78-11.51-21.66-16.89l-5.85-4.56c-8.46-6.6-17.21-13.42-25.53-19.98-12.72-9.89-21.99-18.12-25.44-33.93,0-.04-.02-.08-.03-.12-5.67-22.63-11.66-48.63-17.44-73.77-3.6-15.65-7-30.43-10.26-44.11l-.46-2.07c-2.2-9.83-4.69-20.97-4.06-26.93,0-.06.01-.11.01-.17v-.17c.63-7.93,3.64-15.6,6.82-23.72.71-1.81,1.44-3.67,2.14-5.52,5.93-14.8,13.24-33.39,20.97-53.06,10.54-26.81,21.44-54.53,29.04-73.09,1.88-4.52,4.03-9.18,7.02-12.6,4.54-4.28,8.73-5.17,15.62-6.63,1.87-.4,3.98-.84,6.27-1.4,20.4-3.84,47.96-9.84,77.15-16.2,43.52-9.48,92.83-20.22,124.17-24.87M293.37.99c-51.91,7.67-150.32,31.47-201.95,41.17-10.66,2.63-17.06,2.61-23.92,9.16-3.28,3.7-5.63,8.56-7.83,13.84-13.1,32-35.88,90.91-50.04,126.24-3.75,9.98-8.41,19.95-9.21,30.41v.2c-.75,7.06,2.16,19.4,4.59,30.32,8.57,36,18.56,81.4,27.72,117.96,3.79,17.37,14.05,26.24,26.89,36.23,10.19,8.04,20.86,16.33,31.38,24.54,11.24,8.8,24.29,18.93,34.75,27.09,12.43,9.48,20.71,16.24,34.58,19.61,32.14,6.4,75.92,11.49,107.84,16.7,7.77,1.1,15.28,2.29,22.77,2.29,5.84,0,11.67-.72,17.58-2.78,32.21-11.55,74.79-29.6,107.29-42.3,23.67-9.09,27.43-13.99,37.61-38.44,16.26-37.42,41.91-96.9,56.51-130.49,4.63-11.28,8.38-17.9,9.18-28.18.07-10.13-4.5-19.92-7.88-29.64-15.21-39.02-36.27-100.96-51.92-137.08-4.29-8.72-10.77-13.15-18.9-17.5-34.68-17.82-86.54-43.24-121.02-60.56-10.8-5.06-16.22-8.41-26.03-8.8h0Z"/>
      </g>
      <g>
        <polygon class="cls-1" points="165.79 121.12 71.34 51.63 300.97 3.91 190.79 116.61 165.79 121.12"/>
        <polygon class="cls-1" points="294.45 494.69 279.37 412.16 289.15 403.02 415.93 428 415.93 448.85 294.45 494.69"/>
        <polygon class="cls-1" points="438.66 241.56 445.36 104.81 463.28 104.54 512.46 238.74 507.22 254.76 448.27 260.61 438.66 241.56"/>
        <polygon class="cls-1" points="422.15 248.89 197.45 149.72 197.33 132.52 434.01 86.78 445.36 104.81 438.9 242.07 422.15 248.89"/>
        <polygon class="cls-1" points="286.1 382.13 424.62 266.09 439.22 271.76 430.52 417.35 415.93 428 289.15 403.02 286.1 382.13"/>
        <polygon class="cls-1" points="18.64 208.28 156.58 146.93 165.79 121.12 71.34 51.63 66.68 55.78 9.91 199.41 18.64 208.28"/>
        <polygon class="cls-1" points="108.78 316.64 123.72 306.4 257.74 391.28 259.01 408.14 143.55 462.4 108.78 316.64"/>
        <polygon class="cls-1" points="110.78 289.1 166.23 160.91 186.03 160.37 268.59 374.79 257.64 390.97 123.63 306.4 110.78 289.1"/>
        <polygon class="cls-1" points="44.66 384.93 37.78 374.62 3.28 227.39 12.64 221.83 92.02 293.09 92.22 312.65 44.66 384.93"/>
      </g>
      <g>
        <path class="cls-4" d="M12.48,221.59c14.17,10.56,28.07,22.61,41.31,34.35,13.12,11.89,26.6,24.37,38.64,37.32-14.18-10.55-28.07-22.6-41.31-34.35-13.12-11.89-26.6-24.38-38.64-37.32h0Z"/>
        <path class="cls-4" d="M92.44,312.51c-6.17,12.23-13.39,23.81-20.86,35.24-7.57,11.38-15.38,22.56-24.2,33.04,6.16-12.23,13.38-23.81,20.86-35.25,7.58-11.37,15.38-22.56,24.2-33.04h0Z"/>
        <path class="cls-4" d="M108.6,316.39c6.65,20.75,12.25,42.74,17.47,63.93,5.03,21.25,10.05,43.36,13.58,64.87-6.66-20.74-12.26-42.74-17.47-63.93-5.02-21.25-10.04-43.36-13.58-64.87h0Z"/>
        <path class="cls-4" d="M259.45,407.93c-16.09,9.3-33.48,17.78-50.3,25.77-16.9,7.82-34.53,15.75-51.99,22.15,16.08-9.31,33.48-17.79,50.3-25.77,16.91-7.81,34.53-15.74,51.99-22.15h0Z"/>
        <path class="cls-4" d="M279.25,411.62c3.87,12.38,6.54,25.01,8.92,37.73,2.27,12.74,4.24,25.5,4.99,38.45-3.88-12.38-6.55-25.01-8.92-37.73-2.26-12.74-4.23-25.5-4.99-38.45h0Z"/>
        <path class="cls-4" d="M288.77,402.61c21.16,2.59,43.01,6.65,63.97,10.74,20.94,4.28,42.64,8.91,63.19,14.66-21.17-2.58-43.01-6.64-63.97-10.74-20.94-4.28-42.64-8.92-63.19-14.66h0Z"/>
        <path class="cls-4" d="M438.9,274.01c.22,23.6-.91,48.17-2.19,71.79-1.47,23.62-3.2,48.12-6.18,71.55-.23-23.6.9-48.17,2.19-71.79,1.48-23.61,3.21-48.12,6.18-71.55h0Z"/>
        <path class="cls-4" d="M447.48,260.69c9.76-2.56,19.68-3.91,29.67-4.95,10-.95,20-1.57,30.07-.97-9.76,2.57-19.68,3.92-29.67,4.95-10,.94-20,1.56-30.07.97h0Z"/>
        <path class="cls-4" d="M422.15,267.8c-43.37,40.02-89.14,78.51-136.05,114.33,43.36-40.04,89.15-78.5,136.05-114.33h0Z"/>
        <path class="cls-4" d="M438.9,242.07c-.54-22.62.27-46.18,1.24-68.83,1.16-22.65,2.56-46.16,5.23-68.64.55,22.62-.27,46.18-1.24,68.83-1.17,22.65-2.57,46.16-5.23,68.64h0Z"/>
        <path class="cls-4" d="M430.52,87.26c-76.8,17.68-155.16,32.9-233,45.19,76.8-17.7,155.16-32.88,233-45.19h0Z"/>
        <path class="cls-4" d="M197.52,149.92c75.65,30.34,151.2,63.61,224.63,98.97-75.65-30.32-151.19-63.62-224.63-98.97h0Z"/>
        <path class="cls-4" d="M186.48,160.84c29.8,70,57.44,141.94,82.11,213.92-29.82-70-57.42-141.95-82.11-213.92h0Z"/>
        <path class="cls-4" d="M123.66,306.37c45.99,25.77,91.21,54.26,134.27,84.68-46.01-25.76-91.19-54.28-134.27-84.68h0Z"/>
        <path class="cls-4" d="M110.55,289.33c7.65-21.71,16.91-43.84,25.98-65.04,9.25-21.14,19.04-43.01,29.64-63.45-7.64,21.71-16.9,43.84-25.98,65.04-9.26,21.13-19.05,43-29.64,63.45h0Z"/>
        <path class="cls-4" d="M157.16,146.65c-44.85,23.01-91.5,43.85-138.58,61.84,44.84-23.03,91.51-43.83,138.58-61.84h0Z"/>
        <path class="cls-4" d="M79.49,57.78c15.09,9.09,30.05,19.7,44.33,30.06,14.18,10.52,28.76,21.6,41.97,33.28-15.1-9.08-30.05-19.69-44.33-30.06-14.17-10.53-28.76-21.6-41.97-33.28h0Z"/>
        <path class="cls-4" d="M190.79,116.61c15.64-18.29,32.97-36.44,49.76-53.75,16.94-17.19,34.66-34.9,52.61-50.96-15.64,18.3-32.96,36.44-49.76,53.75-16.94,17.18-34.67,34.89-52.61,50.96h0Z"/>
      </g>
      <path class="cls-2" d="M293.5,6.03c2.16.21,4.18,1.25,6.48,2.43,1.33.68,2.7,1.38,4.21,2,2.01.81,4.08,1.28,6.09,1.73,2.39.54,4.65,1.05,6.94,2.11,7.82,3.93,16.42,8.69,25.52,13.72,10.96,6.06,22.29,12.33,34.1,18.2,10.7,5.32,21.5,10.17,31.95,14.86,10.61,4.76,20.64,9.26,29.29,13.7,1.79.97,3.39,2.67,5.08,4.46,1.12,1.19,2.28,2.42,3.62,3.58,1.04.9,2.1,1.69,3.13,2.45,2.12,1.58,3.96,2.94,4.88,4.73,4.65,10.77,9.23,24.38,14.07,38.79,3.27,9.72,6.65,19.78,10.34,29.84,5.54,15.1,11.85,30.3,17.42,43.71,3.61,8.68,7.02,16.89,9.92,24.33.68,1.99,1.06,4.32,1.46,6.78.43,2.65.88,5.39,1.75,8.15.6,1.9,1.35,3.67,2.08,5.39,1.15,2.7,2.23,5.26,2.28,7.41-.24,2.36-1.36,4.57-2.65,7.12-.8,1.58-1.62,3.21-2.32,5.03-.88,2.31-1.37,4.69-1.84,7-.52,2.52-1,4.91-1.98,7.3-3.31,7.6-7.64,16.57-12.23,26.07-5.64,11.67-12.03,24.9-17.84,38.33-5.33,12.32-10.11,24.74-14.73,36.75-4.09,10.63-7.95,20.67-11.69,29.27-.01.03-.02.06-.04.09-4.7,11.28-9.45,16.93-13.91,21.76-4.47,4.83-9.43,9.53-20.9,13.94-7.22,2.82-15.09,5.53-23.41,8.4-10.11,3.48-20.56,7.09-30.9,11.25-8.34,3.36-16.5,7.04-24.39,10.59-10.06,4.53-19.56,8.82-28.43,12-2.03.7-4.33,1.03-7.23,1.03-1.97,0-3.98-.14-6.1-.29-1.58-.11-3.22-.23-4.86-.28-.78-.03-1.58-.04-2.45-.04-1.86,0-3.73.06-5.53.12-1.74.06-3.54.11-5.27.11-2.54,0-4.61-.12-6.49-.39-6.7-1.1-13.89-2.54-21.49-4.07-10.42-2.09-21.19-4.26-32.25-5.85-7.95-1.14-15.93-1.97-23.65-2.76-10.81-1.11-21.02-2.17-30.1-3.97-4.24-1.06-7.74-3.47-11.44-6.03-1.38-.95-2.8-1.94-4.3-2.87-2.17-1.36-4.47-2.55-6.7-3.71-3.38-1.76-6.88-3.57-10.18-6.08-2.24-1.75-4.5-4.06-6.9-6.51-2.84-2.9-5.78-5.9-9.24-8.6-3.29-2.56-6.8-4.61-10.19-6.59-3.08-1.79-5.98-3.49-8.41-5.39-2.26-1.76-4.36-3.98-6.58-6.32-2.42-2.55-4.93-5.19-7.89-7.5-2.99-2.34-6.17-4.13-9.24-5.87-2.8-1.58-5.44-3.08-7.68-4.85-4.87-3.79-8.49-8.32-12.32-13.12-.78-.98-1.56-1.96-2.35-2.92-.44-.54-.88-1.07-1.32-1.61-3.96-4.8-7.7-9.33-9.08-15.68-.01-.06-.03-.12-.04-.18-2.38-9.49-4.27-19.67-6.26-30.43-1.75-9.44-3.56-19.2-5.79-28.86-2.56-11.09-5.64-21.96-8.62-32.48-2.59-9.15-5.04-17.8-7.02-26.08-.44-2.01-.5-4.41-.55-6.94-.06-2.69-.13-5.48-.65-8.27-.5-2.69-1.26-5.19-1.93-7.4-.44-1.46-.92-3.03-1.18-4.29.77-1.09,1.36-2.61.94-4.61-.07-.32-.16-.64-.28-.94.5-1.37,1.17-2.82,1.86-4.3.87-1.86,1.76-3.79,2.48-5.88.97-2.81,1.5-5.61,2.01-8.33.48-2.56.94-4.98,1.71-7.06,3.06-7.64,6.94-16.35,11.05-25.57,5.28-11.86,10.74-24.12,15.74-36.83,4.75-12.08,9.06-24.47,12.87-35.4,3.66-10.52,7.12-20.46,10.33-28.32.17-.33.94-1.09,1.46-1.59,1.1-1.09,2.48-2.44,3.46-4.28.94-1.75,1.36-3.53,1.7-4.97.12-.52.3-1.26.44-1.67,1.32-1.04,2.99-1.42,5.64-1.96,1.17-.24,2.38-.48,3.65-.84,2.07-.58,3.97-1.48,5.8-2.35,2.01-.95,3.91-1.85,6.07-2.4,6.73-1.26,14.37-2.65,22.45-4.12,22.73-4.13,51.02-9.26,78.77-15.26,13.04-2.82,25.98-5.83,38.5-8.75,22.94-5.34,44.62-10.38,61.28-12.89M5.37,222.53h0,0M293.25,0c-51.57,9.68-150,33.48-202.03,41.18-18.58,6.45-23.2,5.77-32.48,23.61-11.65,33.96-34.48,92.83-50.05,126.25-2.54,16.8-13.83,28.55-5.91,46.07.76,25.21,11.37,47.55,16.89,74.03,8.05,27.35,4.9,58.52,23.69,79.2,17.83,21.4,42.88,37.07,65.61,53.5,28.62,31.84,63.09,39.42,105.35,41.72,54.4,13.47,97.91,16.18,147.6-13.31,25.93-11.72,59.82-15.75,77.38-35.07,30.96-50.89,58.48-127.65,80.82-182.54-7.51-34.3-21.69-61.43-35.3-98.08-13.44-29.3-13.35-60.9-34.11-78.27C405.43,49.81,342.95,19.65,293.25,0h0Z"/>
    </g>
  </g>
</svg>