<?xml version="1.0" encoding="UTF-8"?>
<svg xmlns="http://www.w3.org/2000/svg" xmlns:xlink="http://www.w3.org/1999/xlink" viewBox="0 0 63.6 78.94">
  <defs>
    <style>
      .cls-1 {
        fill: #e3dfda;
      }

      .cls-2 {
        mix-blend-mode: darken;
        opacity: .2;
      }

      .cls-3 {
        fill: #93ed96;
        stroke: #cbf2cb;
      }

      .cls-3, .cls-4, .cls-5 {
        stroke-miterlimit: 10;
        stroke-width: 2px;
      }

      .cls-6 {
        fill: none;
      }

      .cls-4 {
        fill: #ffb061;
        stroke: #ffe89c;
      }

      .cls-7 {
        clip-path: url(#clippath-1);
      }

      .cls-8 {
        isolation: isolate;
      }

      .cls-9 {
        fill: #e3c3aa;
      }

      .cls-10 {
        fill: #b3b3a1;
      }

      .cls-11 {
        clip-path: url(#clippath);
      }

      .cls-5 {
        fill: #5797ff;
        stroke: #9ccaff;
      }

      .cls-12 {
        fill: #e0e0ca;
      }
    </style>
    <clipPath id="clippath">
      <path class="cls-6" d="M2.16,48.03c0,15.45,13.9,26.55,27.81,26.55s27.81-11.31,27.81-26.55C57.78,27.44,45.91,0,29.97,0S2.16,27.44,2.16,48.03Z"/>
    </clipPath>
    <clipPath id="clippath-1">
      <path class="cls-6" d="M2.16,48.03c0,15.45,13.9,26.55,27.81,26.55s27.81-11.31,27.81-26.55C57.78,27.44,45.91,0,29.97,0S2.16,27.44,2.16,48.03Z"/>
    </clipPath>
  </defs>
  <g class="cls-8">
    <g id="Layer_2" data-name="Layer 2">
      <g id="Layer_1-2" data-name="Layer 1">
        <g id="egg">
          <g>
            <path class="cls-1" d="M29.97,72.58c-12.46,0-25.81-9.86-25.81-24.55C4.16,27.31,16.07,2,29.97,2s25.81,25.31,25.81,46.04c0,14.46-13.6,24.55-25.81,24.55Z"/>
            <path class="cls-10" d="M29.97,4c12.6,0,23.81,24.62,23.81,44.03,0,13.29-12.55,22.55-23.81,22.55S6.16,61.52,6.16,48.03C6.16,28.62,17.37,4,29.97,4M29.97,0C14.03,0,2.16,27.44,2.16,48.03c0,15.45,13.9,26.55,27.81,26.55s27.81-11.31,27.81-26.55C57.78,27.44,45.91,0,29.97,0h0Z"/>
          </g>
          <g class="cls-11">
            <path class="cls-5" d="M61.44,30.17c3.44,9.01-1.06,19.1-10.07,22.54-7.21,2.76-15.28-.85-18.04-8.06-2.2-5.76.68-12.22,6.45-14.43,4.61-1.76,9.78.55,11.54,5.16,1.41,3.69-.44,7.82-4.13,9.23-2.95,1.13-6.26-.35-7.39-3.3-.9-2.36.28-5.01,2.64-5.91,1.89-.72,4.01.22,4.73,2.11.58,1.51-.18,3.2-1.69,3.78-1.21.46-2.56-.14-3.03-1.35"/>
            <path class="cls-4" d="M.91,21.43c3.93-8.8,14.26-12.75,23.06-8.82,7.04,3.15,10.2,11.41,7.06,18.45-2.52,5.63-9.13,8.16-14.76,5.64-4.51-2.01-6.53-7.3-4.52-11.81,1.61-3.61,5.84-5.22,9.45-3.61,2.88,1.29,4.18,4.67,2.89,7.56-1.03,2.31-3.74,3.34-6.05,2.31-1.85-.82-2.67-2.99-1.85-4.84.66-1.48,2.39-2.14,3.87-1.48,1.18.53,1.71,1.91,1.18,3.1"/>
            <path class="cls-3" d="M11.06,75c-7.76-5.73-9.41-16.66-3.68-24.42,4.58-6.21,13.33-7.53,19.53-2.94,4.97,3.66,6.02,10.66,2.36,15.63-2.93,3.97-8.53,4.82-12.5,1.88-3.18-2.35-3.85-6.82-1.51-10,1.88-2.54,5.46-3.08,8-1.21,2.03,1.5,2.47,4.37.96,6.4-1.2,1.63-3.49,1.97-5.12.77-1.3-.96-1.58-2.79-.62-4.1.77-1.04,2.24-1.26,3.28-.49"/>
          </g>
          <path class="cls-12" d="M29.97,4c12.6,0,23.81,24.62,23.81,44.03,0,13.29-12.55,22.55-23.81,22.55S6.16,61.52,6.16,48.03C6.16,28.62,17.37,4,29.97,4M29.97,0C14.03,0,2.16,27.44,2.16,48.03c0,15.45,13.9,26.55,27.81,26.55s27.81-11.31,27.81-26.55C57.78,27.44,45.91,0,29.97,0h0Z"/>
          <g class="cls-7">
            <g class="cls-2">
              <path class="cls-10" d="M2.4,55.39c1.52,1.32,9.11,9.51,23.41,9.19,6.52-.15,17.28-3.59,24.44-14.81,8.39-13.16-.15-35.85-.15-35.85,0,0,20.85,55.89,8.19,61.89-12.67,6-55.11,1.56-55.11,1.56l-.78-21.96Z"/>
            </g>
          </g>
          <ellipse class="cls-9" cx="38.57" cy="14.93" rx="2.11" ry="3.61"/>
          <ellipse class="cls-9" cx="43.24" cy="22.26" rx="2.11" ry="3.61"/>
          <ellipse class="cls-9" cx="13.35" cy="45.49" rx="2.11" ry="3.72"/>
          <ellipse class="cls-9" cx="30.68" cy="63.82" rx="2.11" ry="3.72"/>
        </g>
      </g>
    </g>
  </g>
</svg>