<?xml version="1.0" encoding="UTF-8"?>
<svg xmlns="http://www.w3.org/2000/svg" viewBox="0 0 55.62 55.62">
  <defs>
    <style>
      .cls-1 {
        fill: #75bf76;
      }

      .cls-2 {
        fill: #fff824;
        mix-blend-mode: screen;
        opacity: .21;
      }

      .cls-3 {
        isolation: isolate;
      }

      .cls-4 {
        fill: #cbf2cb;
      }

      .cls-5 {
        fill: #687d45;
        mix-blend-mode: color-burn;
        opacity: .2;
      }

      .cls-6 {
        fill: #93ed96;
      }

      .cls-7 {
        fill: #a8e0a6;
      }
    </style>
  </defs>
  <g class="cls-3">
    <g id="Layer_2" data-name="Layer 2">
      <g id="Layer_1-2" data-name="Layer 1">
        <g id="orbs">
          <g id="terra_orb" data-name="terra orb">
            <g>
              <path class="cls-6" d="M27.81,53.62c-14.23,0-25.81-11.58-25.81-25.81S13.58,2,27.81,2s25.81,11.58,25.81,25.81-11.58,25.81-25.81,25.81Z"/>
              <path class="cls-4" d="M27.81,4c13.13,0,23.81,10.68,23.81,23.81s-10.68,23.81-23.81,23.81S4,40.94,4,27.81,14.68,4,27.81,4M27.81,0C12.45,0,0,12.45,0,27.81s12.45,27.81,27.81,27.81,27.81-12.45,27.81-27.81S43.17,0,27.81,0h0Z"/>
            </g>
            <g>
              <path class="cls-7" d="M27.81,43.75c-8.79,0-15.94-7.15-15.94-15.94s7.15-15.94,15.94-15.94,15.94,7.15,15.94,15.94-7.15,15.94-15.94,15.94Z"/>
              <path class="cls-1" d="M27.81,12.87c8.24,0,14.94,6.7,14.94,14.94s-6.7,14.94-14.94,14.94-14.94-6.7-14.94-14.94,6.7-14.94,14.94-14.94M27.81,10.87c-9.36,0-16.94,7.59-16.94,16.94s7.59,16.94,16.94,16.94,16.94-7.59,16.94-16.94-7.59-16.94-16.94-16.94h0Z"/>
            </g>
            <g>
              <path class="cls-6" d="M27.81,32.52c-2.6,0-4.71-2.11-4.71-4.71s2.11-4.71,4.71-4.71,4.71,2.11,4.71,4.71-2.11,4.71-4.71,4.71Z"/>
              <path class="cls-4" d="M27.81,24.1c2.05,0,3.71,1.67,3.71,3.71s-1.67,3.71-3.71,3.71-3.71-1.67-3.71-3.71,1.67-3.71,3.71-3.71M27.81,22.1c-3.16,0-5.71,2.56-5.71,5.71s2.56,5.71,5.71,5.71,5.71-2.56,5.71-5.71-2.56-5.71-5.71-5.71h0Z"/>
            </g>
            <g>
              <path class="cls-7" d="M27.81,31.31c-1.93,0-3.5-1.57-3.5-3.5s1.57-3.5,3.5-3.5,3.5,1.57,3.5,3.5-1.57,3.5-3.5,3.5Z"/>
              <path class="cls-1" d="M27.81,25.31c1.38,0,2.5,1.12,2.5,2.5s-1.12,2.5-2.5,2.5-2.5-1.12-2.5-2.5,1.12-2.5,2.5-2.5M27.81,23.31c-2.49,0-4.5,2.01-4.5,4.5s2.01,4.5,4.5,4.5,4.5-2.01,4.5-4.5-2.01-4.5-4.5-4.5h0Z"/>
            </g>
            <g>
              <path class="cls-6" d="M21.1,18.32c-.56,0-1.12-.1-1.65-.3-1.17-.44-2.09-1.31-2.61-2.45s-.55-2.41-.11-3.57c.68-1.81,2.44-3.02,4.37-3.02.56,0,1.12.1,1.65.3,2.41.91,3.63,3.61,2.72,6.02-.68,1.81-2.44,3.02-4.37,3.02Z"/>
              <path class="cls-4" d="M21.1,9.98h0c.44,0,.88.08,1.29.24,1.89.71,2.85,2.84,2.14,4.73-.54,1.42-1.92,2.38-3.44,2.38-.44,0-.88-.08-1.3-.24-1.89-.71-2.85-2.84-2.14-4.73.54-1.42,1.92-2.38,3.44-2.38M21.1,7.98c-2.29,0-4.45,1.4-5.31,3.67-1.11,2.93.37,6.2,3.3,7.31.66.25,1.34.37,2,.37,2.29,0,4.45-1.4,5.31-3.67,1.11-2.93-.37-6.2-3.3-7.31-.66-.25-1.34-.37-2-.37h0Z"/>
            </g>
            <g>
              <path class="cls-6" d="M43.73,35.19c-.56,0-1.12-.1-1.65-.3-2.41-.91-3.63-3.61-2.72-6.02.68-1.81,2.44-3.02,4.37-3.02.56,0,1.12.1,1.65.3,1.17.44,2.09,1.31,2.61,2.45s.55,2.41.11,3.57c-.68,1.81-2.44,3.02-4.37,3.02Z"/>
              <path class="cls-4" d="M43.73,26.84h0c.44,0,.88.08,1.29.24.92.35,1.64,1.03,2.05,1.92.4.89.44,1.89.09,2.81-.54,1.42-1.92,2.38-3.44,2.38-.44,0-.88-.08-1.3-.24-1.89-.71-2.85-2.84-2.14-4.73.54-1.42,1.92-2.38,3.44-2.38M43.73,24.84c-2.29,0-4.45,1.4-5.31,3.67-1.11,2.93.37,6.2,3.3,7.31.66.25,1.34.37,2,.37,2.29,0,4.45-1.4,5.31-3.67,1.11-2.93-.37-6.2-3.3-7.31-.66-.25-1.34-.37-2-.37h0Z"/>
            </g>
            <g>
              <path class="cls-6" d="M19.83,46.52c-.56,0-1.12-.1-1.65-.3-2.41-.91-3.63-3.61-2.72-6.02.68-1.81,2.44-3.02,4.37-3.02.56,0,1.12.1,1.65.3,1.17.44,2.09,1.31,2.61,2.45s.55,2.41.11,3.57c-.68,1.81-2.44,3.02-4.37,3.02Z"/>
              <path class="cls-4" d="M19.83,38.17h0c.44,0,.88.08,1.29.24,1.89.71,2.85,2.84,2.14,4.73-.54,1.42-1.92,2.38-3.43,2.38-.44,0-.88-.08-1.3-.24-1.89-.71-2.85-2.84-2.14-4.73.54-1.42,1.92-2.38,3.44-2.38M19.83,36.17c-2.29,0-4.45,1.4-5.31,3.67-1.11,2.93.37,6.2,3.3,7.31.66.25,1.34.37,2,.37,2.29,0,4.45-1.4,5.31-3.67,1.11-2.93-.37-6.2-3.3-7.31-.66-.25-1.34-.37-2-.37h0Z"/>
            </g>
            <path class="cls-5" d="M42.66,6.47c1.51,1.44,3.43,3.71,4.43,6.86,4.26,13.37-10.33,35.05-26.3,34.15-8.28-.47-14.2-6.84-16.62-9.86,4.46,10.36,15.03,16.73,26.08,15.8,11.36-.96,20.19-9.37,22.76-18.98,2.46-9.21-1.47-17.09-2.42-18.87-2.51-4.71-5.89-7.6-7.94-9.1Z"/>
            <path class="cls-2" d="M23.32,21.96c-7.1,8-12.95,14.59-15.89,13.18-3.63-1.74-3.5-16.04,4.49-23.96,7.1-7.03,19.41-8.06,21.35-4.74,1.51,2.59-3.21,7.92-9.95,15.51Z"/>
          </g>
        </g>
      </g>
    </g>
  </g>
</svg>