<?xml version="1.0" encoding="UTF-8"?>
<svg xmlns="http://www.w3.org/2000/svg" viewBox="0 0 55.62 55.62">
  <defs>
    <style>
      .cls-1 {
        fill: #ff9661;
      }

      .cls-2 {
        fill: #fff824;
        mix-blend-mode: screen;
        opacity: .21;
      }

      .cls-3 {
        isolation: isolate;
      }

      .cls-4 {
        fill: #ff804a;
      }

      .cls-5 {
        fill: #687d45;
        mix-blend-mode: color-burn;
        opacity: .2;
      }

      .cls-6 {
        fill: #ffe89c;
      }

      .cls-7 {
        fill: #ffb061;
      }
    </style>
  </defs>
  <g class="cls-3">
    <g id="Layer_2" data-name="Layer 2">
      <g id="Layer_1-2" data-name="Layer 1">
        <g id="orbs">
          <g id="thermal_orb" data-name="thermal orb">
            <g>
              <path class="cls-7" d="M27.81,53.62c-14.23,0-25.81-11.58-25.81-25.81S13.58,2,27.81,2s25.81,11.58,25.81,25.81-11.58,25.81-25.81,25.81Z"/>
              <path class="cls-6" d="M27.81,4c13.13,0,23.81,10.68,23.81,23.81s-10.68,23.81-23.81,23.81S4,40.94,4,27.81,14.68,4,27.81,4M27.81,0C12.45,0,0,12.45,0,27.81s12.45,27.81,27.81,27.81,27.81-12.45,27.81-27.81S43.17,0,27.81,0h0Z"/>
            </g>
            <g>
              <path class="cls-1" d="M27.81,43.75c-8.79,0-15.94-7.15-15.94-15.94s7.15-15.94,15.94-15.94,15.94,7.15,15.94,15.94-7.15,15.94-15.94,15.94Z"/>
              <path class="cls-4" d="M27.81,12.87c8.24,0,14.94,6.7,14.94,14.94s-6.7,14.94-14.94,14.94-14.94-6.7-14.94-14.94,6.7-14.94,14.94-14.94M27.81,10.87c-9.36,0-16.94,7.59-16.94,16.94s7.59,16.94,16.94,16.94,16.94-7.59,16.94-16.94-7.59-16.94-16.94-16.94h0Z"/>
            </g>
            <circle class="cls-6" cx="27.81" cy="27.81" r="5.71"/>
            <g>
              <path class="cls-1" d="M27.81,31.31c-1.93,0-3.5-1.57-3.5-3.5s1.57-3.5,3.5-3.5,3.5,1.57,3.5,3.5-1.57,3.5-3.5,3.5Z"/>
              <path class="cls-4" d="M27.81,25.31c1.38,0,2.5,1.12,2.5,2.5s-1.12,2.5-2.5,2.5-2.5-1.12-2.5-2.5,1.12-2.5,2.5-2.5M27.81,23.31c-2.49,0-4.5,2.01-4.5,4.5s2.01,4.5,4.5,4.5,4.5-2.01,4.5-4.5-2.01-4.5-4.5-4.5h0Z"/>
            </g>
            <g>
              <path class="cls-7" d="M14.52,22.24c-2.12,0-4.09-.84-5.56-2.36-1.43-1.49-2.2-3.44-2.16-5.5.04-2.06.88-3.99,2.36-5.42,1.45-1.4,3.35-2.16,5.36-2.16,2.12,0,4.09.84,5.56,2.36,1.43,1.49,2.2,3.44,2.16,5.5-.04,2.06-.88,3.99-2.36,5.42-1.45,1.4-3.35,2.16-5.36,2.16Z"/>
              <path class="cls-6" d="M14.51,7.79h0c1.84,0,3.56.73,4.84,2.06,1.25,1.29,1.92,2.99,1.88,4.79s-.76,3.47-2.06,4.72c-1.26,1.21-2.92,1.88-4.67,1.88-1.84,0-3.56-.73-4.84-2.06-1.25-1.29-1.92-2.99-1.88-4.79s.76-3.47,2.06-4.72c1.26-1.21,2.92-1.88,4.67-1.88M14.51,5.79c-2.18,0-4.36.81-6.05,2.44-3.47,3.34-3.57,8.87-.22,12.34,1.71,1.78,4,2.67,6.28,2.67s4.36-.81,6.05-2.44c3.47-3.34,3.57-8.87.22-12.34-1.71-1.78-3.99-2.67-6.28-2.67h0Z"/>
            </g>
            <path class="cls-5" d="M42.43,6.47c1.51,1.44,3.43,3.71,4.43,6.86,4.26,13.37-10.33,35.05-26.3,34.15-8.28-.47-14.2-6.84-16.62-9.86,4.46,10.36,15.03,16.73,26.08,15.8,11.36-.96,20.19-9.37,22.76-18.98,2.46-9.21-1.47-17.09-2.42-18.87-2.51-4.71-5.89-7.6-7.94-9.1Z"/>
            <path class="cls-2" d="M23.1,21.96c-7.1,8-12.95,14.59-15.89,13.18-3.63-1.74-3.5-16.04,4.49-23.96,7.1-7.03,19.41-8.06,21.35-4.74,1.51,2.59-3.21,7.92-9.95,15.51Z"/>
          </g>
        </g>
      </g>
    </g>
  </g>
</svg>