<?xml version="1.0" encoding="UTF-8"?>
<svg xmlns="http://www.w3.org/2000/svg" viewBox="0 0 55.62 55.62">
  <defs>
    <style>
      .cls-1 {
        fill: #315fbd;
      }

      .cls-2 {
        fill: #5797ff;
      }

      .cls-3 {
        fill: #9ccaff;
      }

      .cls-4 {
        fill: #fff824;
        mix-blend-mode: screen;
        opacity: .21;
      }

      .cls-5 {
        isolation: isolate;
      }

      .cls-6 {
        fill: #687d45;
        mix-blend-mode: color-burn;
        opacity: .2;
      }

      .cls-7 {
        fill: #3c67e8;
      }
    </style>
  </defs>
  <g class="cls-5">
    <g id="Layer_2" data-name="Layer 2">
      <g id="Layer_1-2" data-name="Layer 1">
        <g id="orbs">
          <g id="tidal_orb" data-name="tidal orb">
            <g>
              <path class="cls-2" d="M27.81,53.62c-14.23,0-25.81-11.58-25.81-25.81S13.58,2,27.81,2s25.81,11.58,25.81,25.81-11.58,25.81-25.81,25.81Z"/>
              <path class="cls-3" d="M27.81,4c13.13,0,23.81,10.68,23.81,23.81s-10.68,23.81-23.81,23.81S4,40.94,4,27.81,14.68,4,27.81,4M27.81,0C12.45,0,0,12.45,0,27.81s12.45,27.81,27.81,27.81,27.81-12.45,27.81-27.81S43.17,0,27.81,0h0Z"/>
            </g>
            <g>
              <path class="cls-2" d="M17.38,24.53c-2.12,0-4.09-.84-5.56-2.36-1.43-1.49-2.2-3.44-2.16-5.5.04-2.06.88-3.99,2.36-5.42,1.45-1.4,3.35-2.16,5.36-2.16,2.12,0,4.09.84,5.56,2.36,2.96,3.07,2.87,7.97-.2,10.92-1.45,1.4-3.35,2.16-5.36,2.16Z"/>
              <path class="cls-3" d="M17.38,10.08h0c1.84,0,3.56.73,4.84,2.06,1.25,1.29,1.92,2.99,1.88,4.79s-.76,3.47-2.06,4.72c-1.26,1.21-2.92,1.88-4.67,1.88-1.84,0-3.56-.73-4.84-2.06-2.57-2.67-2.5-6.93.17-9.51,1.26-1.21,2.92-1.88,4.67-1.88M17.38,8.08c-2.18,0-4.36.81-6.05,2.44-3.47,3.34-3.57,8.87-.22,12.34,1.71,1.78,4,2.67,6.28,2.67s4.36-.81,6.05-2.44c3.47-3.34,3.57-8.87.22-12.34-1.71-1.78-3.99-2.67-6.28-2.67h0Z"/>
            </g>
            <g>
              <path class="cls-7" d="M27.81,43.75c-8.79,0-15.94-7.15-15.94-15.94s7.15-15.94,15.94-15.94,15.94,7.15,15.94,15.94-7.15,15.94-15.94,15.94Z"/>
              <path class="cls-1" d="M27.81,12.87c8.24,0,14.94,6.7,14.94,14.94s-6.7,14.94-14.94,14.94-14.94-6.7-14.94-14.94,6.7-14.94,14.94-14.94M27.81,10.87c-9.36,0-16.94,7.59-16.94,16.94s7.59,16.94,16.94,16.94,16.94-7.59,16.94-16.94-7.59-16.94-16.94-16.94h0Z"/>
            </g>
            <g>
              <path class="cls-2" d="M27.81,32.52c-2.6,0-4.71-2.11-4.71-4.71s2.11-4.71,4.71-4.71,4.71,2.11,4.71,4.71-2.11,4.71-4.71,4.71Z"/>
              <path class="cls-3" d="M27.81,24.1c2.05,0,3.71,1.67,3.71,3.71s-1.67,3.71-3.71,3.71-3.71-1.67-3.71-3.71,1.67-3.71,3.71-3.71M27.81,22.1c-3.15,0-5.71,2.56-5.71,5.71s2.56,5.71,5.71,5.71,5.71-2.56,5.71-5.71-2.56-5.71-5.71-5.71h0Z"/>
            </g>
            <g>
              <path class="cls-7" d="M27.81,31.31c-.93,0-1.81-.36-2.47-1.02s-1.03-1.54-1.03-2.47.36-1.81,1.03-2.48,1.54-1.02,2.47-1.02,1.81.36,2.47,1.02c1.36,1.36,1.36,3.58,0,4.95-.66.66-1.54,1.02-2.47,1.02Z"/>
              <path class="cls-1" d="M27.81,25.31c.67,0,1.3.26,1.77.73.47.47.73,1.1.73,1.77s-.26,1.3-.73,1.77c-.47.47-1.1.73-1.77.73s-1.3-.26-1.77-.73c-.47-.47-.73-1.1-.73-1.77s.26-1.3.73-1.77c.47-.47,1.1-.73,1.77-.73M27.81,23.31c-1.15,0-2.3.44-3.18,1.32-1.76,1.76-1.76,4.61,0,6.36.88.88,2.03,1.32,3.18,1.32s2.3-.44,3.18-1.32c1.76-1.76,1.76-4.61,0-6.36-.88-.88-2.03-1.32-3.18-1.32h0Z"/>
            </g>
            <g>
              <path class="cls-2" d="M40.01,45.92c-1.78,0-3.43-.7-4.67-1.98-2.48-2.57-2.4-6.68.17-9.16,1.21-1.17,2.81-1.82,4.5-1.82,1.78,0,3.43.7,4.67,1.98,1.2,1.25,1.85,2.89,1.81,4.62-.03,1.73-.74,3.35-1.98,4.55-1.21,1.17-2.81,1.82-4.5,1.82Z"/>
              <path class="cls-3" d="M40.01,33.96h0c1.5,0,2.9.6,3.95,1.68,2.1,2.18,2.03,5.65-.14,7.75-1.03.99-2.38,1.54-3.8,1.54-1.5,0-2.9-.6-3.95-1.68-2.1-2.18-2.03-5.65.14-7.75,1.03-.99,2.38-1.54,3.8-1.54M40.01,31.96c-1.87,0-3.74.7-5.19,2.1-2.97,2.87-3.06,7.6-.19,10.58,1.47,1.52,3.43,2.29,5.39,2.29s3.74-.7,5.19-2.1c2.97-2.87,3.06-7.6.19-10.58-1.47-1.52-3.43-2.29-5.39-2.29h0Z"/>
            </g>
            <path class="cls-6" d="M42.47,6.47c1.51,1.44,3.43,3.71,4.43,6.86,4.26,13.37-10.33,35.05-26.3,34.15-8.28-.47-14.2-6.84-16.62-9.86,4.46,10.36,15.03,16.73,26.08,15.8,11.36-.96,20.19-9.37,22.76-18.98,2.46-9.21-1.47-17.09-2.42-18.87-2.51-4.71-5.89-7.6-7.94-9.1Z"/>
            <path class="cls-4" d="M23.14,21.96c-7.1,8-12.95,14.59-15.89,13.18-3.63-1.74-3.5-16.04,4.49-23.96,7.1-7.03,19.41-8.06,21.35-4.74,1.51,2.59-3.21,7.92-9.95,15.51Z"/>
          </g>
        </g>
      </g>
    </g>
  </g>
</svg>