<?xml version="1.0" encoding="UTF-8"?>
<svg xmlns="http://www.w3.org/2000/svg" viewBox="0 0 319.89 309.23">
  <defs>
    <style>
      .cls-1 {
        fill: #968c91;
      }

      .cls-2 {
        fill: #5c5156;
      }

      .cls-3 {
        fill: #7a7277;
      }

      .cls-4 {
        fill: #2b1e2b;
      }

      .cls-5 {
        isolation: isolate;
      }

      .cls-6 {
        fill: #635d60;
      }

      .cls-7 {
        fill: #4d474a;
      }

      .cls-8 {
        fill: #423a3e;
      }

      .cls-9 {
        fill: #756d71;
      }

      .cls-10 {
        mix-blend-mode: darken;
      }

      .cls-11 {
        fill: #3b3136;
      }

      .cls-12 {
        fill: #261a26;
      }
    </style>
  </defs>
  <g class="cls-5">
    <g id="Layer_2" data-name="Layer 2">
      <g id="Layer_2-2" data-name="Layer 2">
        <g id="flamethrower">
          <g id="dragon_head">
            <path class="cls-11" d="M235.62,157.82s-86,5.12-81.76,49.82l42.98,37.08,26.72,47.3-16.72,6.28-89.94-98.2.66-46.97,118.06,4.7Z"/>
            <g>
              <g>
                <path class="cls-11" d="M216.65,287.18c13.09-3.35,23.99-11.77,28.62-15.78-4.19,14.5-20.11,22.77-23.93,24.57l-4.7-8.79Z"/>
                <path class="cls-4" d="M243.07,274.51c-4.97,11.18-16.92,17.96-21.3,20.14l-3.65-6.83c10.54-2.97,19.57-9.07,24.95-13.31M246.94,268.53s-14.19,13.97-31.78,17.98l5.74,10.76s22.92-9.54,26.04-28.74h0Z"/>
              </g>
              <path class="cls-12" d="M149.24,158.27s-7.75,15.94-6.39,22.11c0,0,11.98-18.41,16.48-18.32l-9.43-4.24-.66.44Z"/>
              <g>
                <path class="cls-11" d="M296.79,249.72c1.97-6.76,5.87-23.4,2.12-39.14l13.47-.47c.09,4.84-.38,26.68-15.59,39.61Z"/>
                <path class="cls-4" d="M311.39,211.14c-.01,5.81-1.07,23.45-12.72,35.45,1.96-7.88,4.34-21.69,1.48-35.06l11.24-.39M313.34,209.08l-15.71.54c5.35,20.21-2.77,42.86-2.77,42.86,20.44-14.53,18.48-43.41,18.48-43.41h0Z"/>
              </g>
              <path class="cls-12" d="M138.87,193.35s7.19-15.55,12.67-18.12c0,0-6.41,20.37-3.54,23.89l-9.26-4.47.13-1.29Z"/>
            </g>
            <g>
              <path class="cls-2" d="M126.35,190.48s1.24-6.72,17.44-2.39c16.21,4.33,65.35,18.06,71.39,55.75,7.71,48.12,40.6,44.61,40.6,44.61-4.5,4.52-10.93,3.57-10.93,3.57,0,0,6.5,0,9.98,5.25,0,0-12.77-.19-26.52-6.67-10.87-5.12-27.22-13.84-33.05-38.76-5.83-24.92-77.62-46.99-68.92-61.35Z"/>
              <path class="cls-8" d="M244.86,292.02c-18.86-3.93-34.02-19.52-39.48-37.81-.97-3.04-1.74-6.16-2.32-9.3-.54-3.13-.92-6.13-2.13-9.03-7.13-16.87-27.21-26.5-43.63-32.29-5.79-1.88-11.84-3.73-17.89-4.16,0,0,.17-4,.17-4,6.57.61,12.72,2.69,18.88,4.86,17.93,6.82,41.46,19.11,45.63,39.61,2.39,24.23,16.13,45.93,40.76,52.12h0Z"/>
            </g>
            <g>
              <path class="cls-1" d="M163.67,190.77s-.08,0-.12-.01c-.64-.12-.79-.42-1.11-1.27-.43-1.12-1.09-2.82-4.05-4.44-2.42-1.32-30.25-10.42-34.19-11.71l.93-4.82c4.28,1.86,29.7,12.8,35.72,13.52.5.06.98.09,1.42.09,1.9,0,2.94-.53,3.71-.91.39-.2.68-.34.93-.34.11,0,.29.02.59.21.76.49.88,1.94.31,3.88-.86,2.93-2.91,5.8-4.15,5.8Z"/>
              <path class="cls-3" d="M125.5,169.23c5.61,2.42,29.43,12.61,35.29,13.31.52.06,1.02.09,1.48.09,2.01,0,3.17-.58,3.93-.96.29-.15.57-.29.71-.29.09,0,.23.07.32.13.54.34.58,1.68.1,3.32-.88,3-2.85,5.44-3.7,5.44h0c-.36-.07-.41-.11-.74-.96-.46-1.19-1.15-2.99-4.28-4.7-2.38-1.3-28.67-9.92-33.85-11.61l.73-3.78M124.76,167.81l-1.14,5.87s31.98,10.42,34.52,11.81c4.86,2.65,3.08,5.33,5.31,5.76.07.01.14.02.21.02,2.67,0,6.85-8.86,4.11-10.6-.33-.21-.6-.29-.86-.29-1.01,0-1.81,1.25-4.64,1.25-.41,0-.86-.03-1.36-.09-6.45-.77-36.16-13.73-36.16-13.73h0Z"/>
            </g>
            <g>
              <g>
                <path class="cls-12" d="M291.47,210.62s-1.15,11.14-10.58,20.02c0,0,3.37-15.85,2.34-21.99l8.24,1.98Z"/>
                <path class="cls-12" d="M279.77,208.44s-2.72,9.49-12.95,15.76c0,0,5.51-13.25,5.45-18.74l7.5,2.98Z"/>
                <path class="cls-12" d="M268.89,205.27s-3.53,8.09-13.1,11.99c0,0,6.4-11,7.03-15.96l6.07,3.96Z"/>
                <path class="cls-12" d="M260.78,200.64s-5.54,5.86-15.59,6.17c0,0,9.03-7.45,10.99-11.53l4.6,5.37Z"/>
                <path class="cls-12" d="M252.9,194.3s-5.6,5.22-15.6,4.89c0,0,9.09-6.52,11.1-10.27l4.5,5.38Z"/>
                <path class="cls-12" d="M245.46,185.52s-3.72,5.86-12.04,7.66c0,0,6.39-7.76,7.4-11.55l4.65,3.9Z"/>
                <path class="cls-12" d="M238.61,178.69s-2.27,5.89-9.62,9.44c0,0,4.36-8.15,4.54-11.63l5.09,2.19Z"/>
                <path class="cls-12" d="M229.25,173.15s-.87,6.29-7.21,11.58c0,0,2.39-9.01,1.78-12.43l5.44.85Z"/>
                <path class="cls-12" d="M219.17,168.92s.47,6.34-4.59,12.98c0,0,.43-9.35-.89-12.54l5.48-.44Z"/>
                <path class="cls-12" d="M204.65,167.76s1.34,8.34,2.55,11.62c0,0,2.96-4.92,3.77-11.02l-6.32-.6Z"/>
                <path class="cls-12" d="M195.49,167.35s2.05,8.19,3.5,11.34c0,0,2.36-5.19,2.57-11.36l-6.08.02Z"/>
                <path class="cls-12" d="M185.46,168.44s3.1,7.82,4.95,10.73c0,0,1.67-5.49,1.07-11.63l-6.01.9Z"/>
                <path class="cls-12" d="M176.26,170.21s3.1,7.82,4.95,10.73c0,0,1.67-5.49,1.07-11.63l-6.01.9Z"/>
                <path class="cls-12" d="M168.38,170.79s2.21,8.14,3.73,11.26c0,0,2.26-5.24,2.35-11.42l-6.07.16Z"/>
                <path class="cls-12" d="M162.33,168.12s-1.86,8.04-2.05,11.43c0,0,4.04-3.48,6.81-8.77l-4.75-2.66Z"/>
                <path class="cls-12" d="M155.68,163.84s-4.09,7.24-3.71,11.37c0,0,5.9-7.09,7.9-6.8l-4.19-4.57Z"/>
              </g>
              <g>
                <path class="cls-12" d="M207.3,289.26s7.93-4.35,11.67-15.87c0,0-10.76,7.82-15.64,8.66l3.97,7.21Z"/>
                <path class="cls-12" d="M199.92,279.69s7.49-2.41,12.11-11.26c0,0-10.39,4.83-14.78,4.81l2.68,6.45Z"/>
                <path class="cls-12" d="M194.36,271.8s7.13-1.43,12.47-9.17c0,0-10.08,3.37-14.08,2.88l1.61,6.29Z"/>
                <path class="cls-12" d="M192.09,262.4s6.27-.69,11.35-6.91c0,0-8.94,2.14-12.37,1.42l1.02,5.49Z"/>
                <path class="cls-12" d="M190.27,255.28s5.94-1.34,10.49-8.1c0,0-8.41,3.07-11.72,2.7l1.23,5.4Z"/>
                <path class="cls-12" d="M184.97,243.02s10.05-3.48,14.24-4.32c0,0-4.56,4.93-11.27,8.85l-2.97-4.53Z"/>
                <path class="cls-12" d="M182.99,235.31s9.69-4.61,13.84-5.87c0,0-3.77,5.77-9.94,10.61l-3.91-4.74Z"/>
                <path class="cls-12" d="M178.18,226.86s9.7-5.16,13.88-6.65c0,0-3.65,6.01-9.76,11.21l-4.12-4.56Z"/>
                <path class="cls-12" d="M172.04,220.84s9.63-6.21,13.84-8.14c0,0-3.38,6.46-9.34,12.34l-4.49-4.21Z"/>
                <path class="cls-12" d="M168.48,213.75s7.76-6.45,11.29-8.54c0,0-2.89,7.06-8.15,12.84l-3.14-4.29Z"/>
                <path class="cls-12" d="M160.06,208.05s7.33-7.58,10.73-10.17c0,0-2.34,7.58-7.19,14.15l-3.54-3.98Z"/>
                <path class="cls-12" d="M152.7,203.63s6.93-8.6,10.19-11.64c0,0-1.09,6.96-4.73,14.16l-5.46-2.52Z"/>
                <path class="cls-12" d="M145.85,199.27s4.06-10.24,8.66-13.11c0,0-2.3,11.33-2.3,15.09l-6.37-1.98Z"/>
              </g>
            </g>
            <g>
              <g>
                <g>
                  <path class="cls-9" d="M273.65,251.7c3.58-5.3,16.99-26.53,18.73-49.61l16.72,5.57c-1.12,4.08-10.38,34.92-35.45,44.04Z"/>
                  <path class="cls-4" d="M292.83,202.76l15.66,5.22c-1.54,5.35-10.57,33.32-33.56,42.69,4.47-6.88,16.08-26.54,17.89-47.91M291.93,201.41c-1.78,26.96-19.56,51.26-19.56,51.26,28.44-9.19,37.33-45.33,37.33-45.33l-17.78-5.93h0Z"/>
                </g>
                <g>
                  <path class="cls-9" d="M134.06,179.7c-.17-6.3,5.8-18.66,6.97-21.02l9.52,3.4c-7.16,3.57-14.2,14.01-16.49,17.62Z"/>
                  <path class="cls-4" d="M141.27,159.3l8.05,2.88c-6.05,3.54-11.83,11.43-14.66,15.68.69-5.61,4.54-14.36,6.61-18.55M140.78,158.06s-8.53,16.67-7.05,23.12c0,0,9.31-15.7,18.16-19.15l-11.11-3.97h0Z"/>
                </g>
              </g>
              <g>
                <g>
                  <path class="cls-9" d="M205.96,286.86c16.5-8.1,28.29-24.05,31.47-28.68.45,21.22-19.43,37.16-22.41,39.42l-9.06-10.75Z"/>
                  <path class="cls-4" d="M236.93,259.77c-.52,19.45-18,34.16-21.83,37.15l-8.34-9.89c15-7.58,26.04-21.49,30.18-27.26M237.86,256.63s-12.95,20.65-32.7,30.06l9.78,11.6s24.53-17.51,22.92-41.66h0Z"/>
                </g>
                <g>
                  <path class="cls-9" d="M132.39,190.81c1.14-2.39,7.26-14.87,12.35-18.53-1.37,4.52-5.29,18.3-4.08,23.75l-8.27-5.22Z"/>
                  <path class="cls-4" d="M143.77,173.75c-1.59,5.43-4.3,15.78-3.76,21.28l-6.99-4.41c2.06-4.3,6.71-12.97,10.75-16.87M145.59,171.19c-5.99,2.81-13.85,19.81-13.85,19.81l9.98,6.3c-3.14-3.84,3.87-26.11,3.87-26.11h0Z"/>
                </g>
              </g>
            </g>
            <g>
              <path class="cls-9" d="M198.09,307.23c-2.86,0-6.04-.37-9.45-1.11-21.56-4.66-37.17-10.46-41.7-42.77-.11-1.25-3.28-32.82-27.14-36.66-1.8-.29-3.56-.44-5.22-.44-10.57,0-17.93,6.19-19.62,16.09-2.99-3.12-7.6-9.13-9.76-18.21l-.97-4.07-2.56,3.31c-.5.64-10.28,13.43-12.72,27.91-3.57-10.42-7.56-29.77,1.89-49.83l1.62-3.44-3.75.62c-.73.12-17,3.02-29.79,23.94-1.82-9.04-3.33-29.19,14.77-42.35l1.81-1.31-1.5-1.65c-.34-.37-8.52-9.09-29.83-9.09-6.26,0-13.08.76-20.33,2.27,4.89-8.44,18.57-28.45,40.14-32.23l7.03-1.23-6.64-2.6c-1.09-.43-25.68-10.59-21.22-43.64,6.34,6.65,22.69,21.63,43.76,24.66l3.92.56-1.87-3.49c-.11-.21-10.27-19.54-.91-34.1,1.86,8.12,7.3,24.4,21.15,24.9.41.01.81.02,1.2.02,11.13,0,16.15-5.68,19.82-9.83,1.65-1.86,3.07-3.47,4.51-3.9.44-.13,1.1-.36,1.97-.66,5.05-1.75,18.47-6.41,33.41-6.41,19.23,0,34.3,7.51,44.78,22.32,27.36,38.66,49.26,46.58,73.73,46.58,1.61,0,3.3-.04,5.02-.11,3.03-.13,5.96-.19,8.7-.19,22.15,0,30.44,4.15,33.5,7.64,1.67,1.9,2.31,4.16,1.95,6.89-.73,5.6-1.84,9.36-2.83,12.68-1.35,4.57-2.43,8.19-1.29,13.48.27,1.24.56,2.48.85,3.68,1.83,7.67,2.3,11.17-.82,12.42-1.63.65-7.46,1.31-15.45,1.31-13.95,0-32.46-2.1-38.73-8.02-2.65-2.5-5.1-5.45-7.69-8.58-7.71-9.28-16.44-19.81-34.72-23.92l-.11-.02c-.33-.05-8.18-1.34-18.06-1.34-5.83,0-11.16.46-15.83,1.35-1.21.23-2.35.46-3.44.67-4.87.96-8.38,1.66-11.28,1.66-3.78,0-6.79-1.03-11.89-6.47-3.86-4.12-9.19-6.48-14.63-6.48-7.28,0-12.92,4.09-13.7,9.95l-.04.29c-1.17,8.78-2.94,22.06,15.48,29.68,16.73,6.92,42.8,29.13,46.2,51.2,3.55,23.1,7.82,30.59,21.76,38.19,12.53,6.83,12.74,9.54,12.74,9.64h0s-.4.47-2.16.88c-2.62.61-4.85,2.09-7.21,3.67-4.02,2.69-8.57,5.73-16.84,5.73Z"/>
              <path class="cls-4" d="M67.51,83.96c2.89,8.96,9.07,20.85,21.6,21.3.43.02.86.02,1.28.02,12.03,0,17.62-6.32,21.32-10.51,1.32-1.5,2.69-3.04,3.58-3.31.5-.15,1.15-.38,2.05-.69,5.43-1.89,18.16-6.3,32.76-6.3,18.54,0,33.06,7.22,43.14,21.47,24.15,34.13,45.28,47.43,75.36,47.43,1.64,0,3.36-.04,5.11-.11,3.01-.12,5.91-.19,8.62-.19,22.53,0,29.72,4.36,32,6.96,1.29,1.47,1.76,3.15,1.47,5.31-.71,5.44-1.8,9.12-2.76,12.37-1.38,4.66-2.57,8.68-1.33,14.47.27,1.27.57,2.52.86,3.72.74,3.13,1.45,6.08,1.38,8.12-.05,1.59-.45,1.75-1,1.97-.95.38-5.8,1.17-14.71,1.17-17.61,0-32.62-3-37.36-7.47-2.56-2.42-4.97-5.33-7.53-8.4-7.52-9.06-16.88-20.33-35.82-24.59l-.11-.02-.11-.02c-.34-.06-8.34-1.37-18.39-1.37-5.96,0-11.41.47-16.21,1.39-1.22.23-2.36.46-3.45.68-4.75.94-8.19,1.62-10.89,1.62-3.29,0-5.81-.9-10.43-5.84-4.24-4.52-10.1-7.11-16.09-7.11-8.31,0-14.76,4.81-15.68,11.69l-.04.28c-1.18,8.82-3.15,23.58,16.7,31.79,16.3,6.75,41.7,28.31,44.98,49.65,3.67,23.88,8.14,31.66,22.78,39.64,6.18,3.37,9.15,5.63,10.55,6.95-2.73.75-4.97,2.24-7.33,3.82-3.97,2.65-8.07,5.39-15.73,5.39-2.72,0-5.76-.36-9.03-1.07-21.4-4.63-35.75-9.98-40.13-41.01-.24-2.47-3.89-34.43-28.82-38.44-1.91-.31-3.77-.46-5.54-.46-10.21,0-17.68,5.23-20.62,13.85-2.49-3.24-5.29-8.03-6.81-14.43l-1.93-8.14-5.12,6.61c-.43.55-7.47,9.77-11.28,21.51-2.48-10.58-3.52-25.72,3.84-41.35l3.24-6.88-7.51,1.23c-.71.12-15.48,2.74-28.21,20.4-.2-2.15-.29-4.55-.17-7.1.61-11.94,5.6-21.4,14.85-28.12l3.61-2.62-3-3.3c-.36-.4-9.12-9.75-31.31-9.75-5.09,0-10.53.49-16.26,1.46,6.05-9.27,18.41-24.3,36.41-27.45l13.82-2.43-13.04-5.23c-.98-.39-22.15-9.25-20.39-37.38,7.9,7.56,23.05,19.53,41.9,22.25l7.82,1.12-3.72-6.97c-.09-.18-7.74-14.78-3.2-27.56M69.19,73.63c-14.81,16-2,39.78-2,39.78-26.22-3.78-45.33-27.11-45.33-27.11-7.56,38.44,21.78,49.93,21.78,49.93C14.89,141.26,0,173.33,0,173.33c9.52-2.31,17.51-3.18,24.16-3.18,20.68,0,28.36,8.44,28.36,8.44-24.96,18.15-14.3,49.26-14.3,49.26,12.74-24.3,30.81-27.26,30.81-27.26-14.52,30.81,1.48,59.56,1.48,59.56-1.48-17.19,12.74-35.56,12.74-35.56,3.56,14.96,13.33,21.93,13.33,21.93.13-10.24,6.07-18.26,17.99-18.26,1.53,0,3.17.13,4.9.41,22.61,3.64,25.48,34.96,25.48,34.96,4.74,33.78,21.33,39.7,43.26,44.44,3.76.81,7.02,1.16,9.87,1.16,13.77,0,18.12-7.98,24.5-9.45,7.7-1.78,2.96-7.11-10.07-14.22-13.04-7.11-17.19-13.63-20.74-36.74-3.56-23.11-30.22-45.63-47.41-52.74-17.19-7.11-15.41-18.96-14.22-27.85.68-5.07,5.79-8.22,11.71-8.22,4.45,0,9.36,1.78,13.17,5.85,5,5.34,8.5,7.11,13.35,7.11,3.77,0,8.35-1.07,15.09-2.36,5.14-.99,10.53-1.32,15.45-1.32,9.83,0,17.73,1.32,17.73,1.32,23.7,5.33,30.81,21.93,41.48,32,6.89,6.51,25.91,8.57,40.1,8.57,7.77,0,14.1-.62,16.19-1.46,5.93-2.37,2.96-10.07,1.19-18.37s2.37-11.85,4.15-25.48c1.59-12.18-13.85-16.79-37.44-16.79-2.82,0-5.75.07-8.78.19-1.67.07-3.32.11-4.94.11-26.03,0-46.44-9.48-72.1-45.74-12.87-18.19-30.62-23.16-46.41-23.16-17.65,0-32.83,6.22-35.96,7.16-5.79,1.74-8.18,13.65-23.76,13.65-.37,0-.75,0-1.13-.02-16.59-.59-20.07-27.63-20.07-27.63h0Z"/>
            </g>
            <g class="cls-10">
              <path class="cls-2" d="M184.08,137.79s-3.48-2.86-6.28-11.05c-2.8-8.19-9.76-19.3-23.43-18.41s-64.96,14.07-81-15.33c-4-7.33-5.11-15.33-5.11-15.33,0,0-10.11,23,2.33,38.33,0,0-27.48-1.93-47.93-26.15,0,0-4.22,38.67,28.67,46.89,0,0-29.33,0-47.11,33.33,0,0,35.78-8,51.56,8.67,0,0-21.78,11.56-16.89,42.44,0,0,16.89-23.56,32.89-23.33,0,0-14.67,30.89-2.67,47.56,0,0,8-22,14.89-25.33,0,0,5.78,19.11,10.44,21.33,0,0,5.11-21.78,27.56-14.44,22.44,7.33,22.67,29.11,25.78,42.67,3.11,13.56,7.82,30.25,38.44,36.22,18.22,3.56,30.22-5.33,37.33-8.44l-1.11-2.44s-18.89,1.11-29.33-6c-10.44-7.11-14.44-11.78-18.44-27.56s-3.47-32.49-28.33-45c-17.67-8.89-35.67-9.89-35.67-9.89,0,0,2.18-10.34-10.74-12.62,0,0,8.3-18.27-14.26-16.72,0,0,11.67-9.44,15.67-8.11,0,0-14.56-14.44-34.56-16.56,0,0,26.89-4.15,40.07-15.11,0,0,9.94-7.61,39.85,9.48,6.22,3.56,17.33-6.52,22.81-9.04,5.48-2.52,5.85-4.86,14.56-.06Z"/>
            </g>
            <g>
              <path class="cls-6" d="M130.37,123.78s21.75-25.15,40.44,5.38c0,0-20.22,21.29-40.44-5.38Z"/>
              <circle class="cls-11" cx="152" cy="125.85" r="10.22"/>
              <ellipse class="cls-12" cx="151.99" cy="125.74" rx="8.46" ry="3.54" transform="translate(10.59 263.27) rotate(-83.8)"/>
            </g>
            <path class="cls-12" d="M276.19,159.11s22.21,7.8,20.41,15.61-19.21-2.4-10.81-7.8l-9.61-7.8Z"/>
            <g>
              <g>
                <g>
                  <path class="cls-11" d="M236.38,143.64c-2.28-1.34-7.67-7.42-11.93-13.05-.05-.28-.12-.64-.22-1.15-1.89-9.67-2.57-17.33-2.02-22.9,2.16,5.21,5.61,12.76,9.48,18.44,3.5,5.13,5.33,15.74,4.68,18.67Z"/>
                  <path class="cls-4" d="M224.26,115.93c1.72,3.5,3.69,7.1,5.79,10.17,2.2,3.22,3.74,9,4.28,13.07-2.28-2.34-5.26-5.83-7.99-9.42-.04-.21-.08-.44-.14-.7-.97-4.93-1.61-9.31-1.94-13.12M221.73,99.81c-4.29,10.19.87,30.88.81,31.56,0,0,10.85,14.51,14.33,14.51.15,0,.28-.03.4-.08,2.93-1.34.17-15.96-3.93-21.96-6.33-9.27-11.62-24.03-11.62-24.03h0Z"/>
                </g>
                <g>
                  <path class="cls-11" d="M201.89,118.51h0ZM202.15,118.16c-2.61-1.62-9.21-11.97-14.21-21.44-.02-.41-.07-1.02-.16-2.06-1.39-16.66-1.16-29.53.66-38.42,2.03,8.05,5.7,21.12,10.28,30.8,4.14,8.75,5.34,27.66,3.43,31.12Z"/>
                  <path class="cls-4" d="M189.14,66.46c2.04,7,4.71,14.96,7.77,21.44,3.23,6.83,4.46,19.77,4.01,26.12-2.99-3.83-7.46-11.16-11.02-17.85-.03-.42-.07-.95-.13-1.67-.93-11.09-1.13-20.46-.63-28.03M203.36,116.53h0s0,0,0,0M188.68,48.54c-6.65,15.48-2.57,47.64-2.73,48.69,0,0,12.11,23.11,16.47,23.11.17,0,.32-.03.47-.11,3.88-1.92,2.12-24.59-2.36-34.05-6.92-14.62-11.85-37.64-11.85-37.64h0Z"/>
                </g>
                <g>
                  <path class="cls-11" d="M169.83,87.41c-1.34,0-3.32-.63-5.23-1.24-1.17-.37-2.38-.76-3.49-1.01-.92-.21-1.88-.31-2.96-.31-1.95,0-3.87.33-5.73.66-1.56.27-3.03.53-4.26.53-1.68,0-2.51-.43-3.07-1.62-.71-3.48-10-51.95,13.61-78.3-2.19,12.11-4.56,39.16,9.02,69.95,3.92,8.88,3.13,10.85,2.93,11.16-.12.18-.66.19-.83.19Z"/>
                  <path class="cls-4" d="M155.67,13.37c-1.5,14.28-1.19,37.62,10.23,63.51,2.04,4.62,2.69,7.12,2.88,8.41-1.05-.21-2.41-.65-3.57-1.02-1.21-.39-2.46-.79-3.65-1.06-1.06-.24-2.17-.36-3.4-.36-2.12,0-4.22.36-6.07.69-1.47.26-2.86.5-3.92.5-.78,0-1.02-.07-1.16-.29-.91-4.6-8.16-44.54,8.66-70.38M169.96,85.41h0M162.15,0c-31.7,26.67-18.96,85.04-18.96,85.04,1,2.33,2.79,3,4.98,3,2.92,0,6.56-1.19,9.98-1.19.86,0,1.7.07,2.51.26,2.84.65,6.58,2.3,9.16,2.3,3.34,0,4.75-2.78-.27-14.15C151.61,34.57,162.15,0,162.15,0h0Z"/>
                </g>
              </g>
              <g>
                <g>
                  <path class="cls-7" d="M133.41,100.62c-2.3,0-4.44-.44-6.73-1.4-7.3-3.04-17.13-14.5-22.82-37.54-6.19-25.07-1.32-57.4,1.67-58.32,1.02.36,1.81,6.77,2.38,11.45,1.28,10.42,3.04,24.68,9.92,32.65,4.43,5.13,11.49,10.72,18.96,16.64,11.3,8.95,22.99,18.2,24.37,25.27,1.32,6.74.22,9.42-.55,10.41-.45.58-.92.77-1.11.82-1.05-.22-6.02-1.21-12.18-1.21-.69,0-1.39.01-2.11.04-2.44.09-4.56.39-6.43.66-1.87.27-3.63.52-5.39.52Z"/>
                  <path class="cls-4" d="M105.39,5.3c.6,2.06,1.11,6.18,1.54,9.64,1.3,10.54,3.07,24.98,10.15,33.18,4.49,5.2,11.59,10.82,19.1,16.77,10.64,8.42,22.7,17.97,24.01,24.68,1.39,7.1.02,9.54-.77,10-1.53-.31-6.3-1.17-12.08-1.17-.72,0-1.44.01-2.14.04-2.49.1-4.64.4-6.53.67-1.91.27-3.56.51-5.25.51-2.19,0-4.15-.41-6.34-1.32-6.75-2.81-16.63-14.15-22.24-36.86-2.43-9.84-3.4-23.01-2.68-36.15.58-10.5,2.08-17.37,3.23-20M105.51,2.37c-4.53,0-8.52,35.65-2.62,59.56,5.93,24,16.3,35.26,23.41,38.22,2.67,1.11,4.93,1.47,7.11,1.47,3.62,0,7.05-.99,11.85-1.18.7-.03,1.39-.04,2.07-.04,6.77,0,12.15,1.22,12.15,1.22,0,0,5.04-.3,2.67-12.44-2.37-12.15-32.3-29.33-43.56-42.37S110.11,2.63,105.56,2.37c-.02,0-.03,0-.05,0h0Z"/>
                </g>
                <g>
                  <path class="cls-7" d="M195.6,122.9c-2.81-.58-18.52-4.61-24.33-22.12-6.38-19.21-8.82-42.84-7.14-45.83,3.87,2.08,28.38,36.6,33.39,50.05,4.21,11.3-.58,16.68-1.92,17.9Z"/>
                  <path class="cls-4" d="M164.73,56.79c6.28,6.13,27.37,36.52,31.85,48.56,3.67,9.85.19,14.88-1.3,16.46-3.68-.86-17.69-5.15-23.07-21.34-5.69-17.15-8.19-37.64-7.49-43.68M163.95,53.87s-.06,0-.09,0c-3.02.69-.19,27.21,6.46,47.22s25.56,22.87,25.56,22.87c0,0,7.67-5.65,2.57-19.32-5.05-13.55-31.09-50.78-34.5-50.78h0Z"/>
                </g>
                <g>
                  <path class="cls-7" d="M227.51,147.44c-2.45-.45-13.96-3.24-18.6-16.33-5.22-14.71-8.44-31.44-6.64-34.42.02-.04.11-.18.18-.19,3.29.14,21.86,26.83,26.11,37.58,3.23,8.17-.01,12.3-1.05,13.35Z"/>
                  <path class="cls-4" d="M202.22,97.49s0,0,0,0h0M202.89,97.86c4.65,3.36,20.63,26.21,24.74,36.6,2.71,6.85.62,10.56-.48,11.89-3.13-.69-13.12-3.78-17.3-15.57-5.43-15.31-7.74-29.33-6.96-32.92M202.43,95.51s-.08,0-.12,0c-3.91.55.28,20.77,5.66,35.93,5.38,15.16,19.86,17.06,19.86,17.06,0,0,5.76-4.43,1.67-14.78-4.06-10.26-22.9-38.21-27.06-38.21h0Z"/>
                </g>
              </g>
            </g>
            <path class="cls-4" d="M106.47,110.17c3.25,1.43,6.83,1.05,10.26.79,3.46-.32,6.92-.88,10.38-1.42,6.93-1.1,13.88-2.37,21.02-2.97,5.39-.39,11.35-.7,16.52,1.57,8.49,4.09,12.98,13.5,14.31,22.37-1.33-3.29-2.88-6.44-4.78-9.32-7.01-10.67-13.68-11.81-25.73-10.63-10.06.47-34.23,5.48-41.99-.39h0Z"/>
            <path class="cls-4" d="M185.08,138.89c-14.94-12.58-26.43,19.88-44.49,7.37-10.3-6.02-25.11-11.52-36.48-6.07-2.39,1.21-4.01,3.37-6.3,4.73-4.95,3.21-10.49,4.58-15.76,5.81-5.3,1.21-10.53,2.2-15.45,3.83,0,0-.25-3.99-.25-3.99,9.69,2.41,32.08,8.02,35.84,18.07,0,0,.6,1.72.6,1.72-4.59,1.07-9.15,2.98-13.05,5.68-1.16.77-2.22,1.65-3.26,2.56l-1.26-2.45c13.15-1.78,20.42,4.95,15.51,18.02,0,0-.68-1.1-.68-1.1,4.74.95,9.65,3.74,10.98,8.68.44,1.59.46,3.26.25,4.85,0,0-.56-.69-.56-.69,12.16,1.18,24.15,3.9,35.35,8.86,11.22,4.99,21.93,13.71,25.54,25.94,2.95,11.62,5.21,23.52,10.67,34.27,5.94,12.17,14.82,16.96,27.8,19.26,0,0-.06.4-.06.4-13.87-.84-23.65-5.77-30.42-18.22-4.47-8.18-7.13-17.01-9.32-25.95-.73-2.93-1.29-6.06-2.02-8.76-3.17-11.44-12.68-19.85-23.1-25.05-10.87-5.48-23.04-8.57-35.17-9.58,1.45-7.42-4.39-11.81-11.15-12.48,5.35-16-4.82-17.84-17.9-14.72,0,0,3.56-3.36,3.56-3.36,4.41-4.25,9.83-7.18,15.69-8.96,0,0-1.18,2.19-1.18,2.19-1.01-2.53-3.81-4.38-6.19-5.81-2.71-1.57-5.66-2.84-8.67-3.98-8.2-3.12-17.3-5.11-25.9-6.84,0,0,7.01-2.48,7.01-2.48,5.28-1.87,10.67-2.87,15.85-4.06,5.17-1.19,10.25-2.58,14.43-5.2,2.32-1.44,4.17-3.67,6.67-4.83,7.86-3.96,17.22-2.63,25.13-.09,5.28,1.75,10.25,4.24,14.86,7.23,1.21.79,2.12,1.45,3.26,1.92,11.91,4.7,20.76-11.42,32.61-10.69,2.81.22,5.33,1.74,7.28,3.68,0,0-.27.3-.27.3h0Z"/>
          </g>
        </g>
      </g>
    </g>
  </g>
</svg>