<?xml version="1.0" encoding="UTF-8"?>
<svg id="Layer_2" data-name="Layer 2" xmlns="http://www.w3.org/2000/svg" viewBox="0 0 138.9 138.9">
  <defs>
    <style>
      .cls-1 {
        fill: #544754;
      }

      .cls-2 {
        fill: #594b59;
      }

      .cls-3 {
        fill: #3b323b;
      }
    </style>
  </defs>
  <g id="Layer_1-2" data-name="Layer 1">
    <g>
      <rect class="cls-1" width="138.9" height="138.9"/>
      <g>
        <polygon class="cls-3" points="138.24 116.95 127.63 113.19 121.99 105.85 117.12 103.52 94.4 105.33 78.71 118.61 50.04 120.78 33.96 115.43 15.75 114.16 .26 116.89 0 116.87 0 123.31 .26 123.33 15.75 120.6 33.96 121.87 50.04 127.22 78.71 125.05 94.4 111.77 117.12 109.95 121.99 112.29 127.63 119.63 138.24 123.39 138.9 123.32 138.9 116.88 138.24 116.95"/>
        <polygon class="cls-2" points="133.78 107.82 128.44 100.87 119.2 96.44 90.17 98.76 74.5 112.02 51.43 113.76 36.14 108.67 15.15 107.22 0 109.88 0 116.32 0 116.87 .26 116.89 15.75 114.16 33.96 115.43 50.04 120.78 78.71 118.61 94.4 105.33 117.12 103.52 121.99 105.85 127.63 113.19 138.24 116.95 138.9 116.88 138.9 116.07 138.9 109.63 133.78 107.82"/>
      </g>
      <g>
        <polygon class="cls-3" points="133.78 33.69 128.44 39.23 111.21 42.76 82.19 40.91 66.52 30.34 41.98 28.75 33.59 35.95 15.98 38.29 0 32.04 0 26.91 0 26.48 .26 26.46 16.57 32.75 31.41 30.56 40.59 23.16 70.72 25.09 86.41 35.67 109.14 37.12 121.99 35.26 127.63 29.41 138.24 26.41 138.9 26.47 138.9 27.11 138.9 32.24 133.78 33.69"/>
        <polygon class="cls-2" points="138.24 21.28 127.63 24.28 121.99 30.13 109.14 31.99 86.41 30.54 70.72 19.96 40.59 18.02 31.41 25.43 16.57 27.62 .26 21.33 0 21.35 0 23.11 0 26.48 0 28.24 .26 28.22 16.57 34.52 31.41 32.33 40.59 24.92 70.72 26.85 86.41 37.44 109.14 38.88 121.99 37.02 127.63 31.17 138.24 28.17 138.9 28.23 138.9 26.47 138.9 23.1 138.9 21.33 138.24 21.28"/>
      </g>
      <g>
        <polygon class="cls-3" points="17.33 79.82 22.94 76.29 28.5 75.01 52.74 75.94 68.42 82.34 95.75 83.34 111.62 80.79 130.56 80.16 138.9 80.87 138.9 75.68 130.56 74.98 111.62 75.61 95.75 78.16 68.42 77.16 52.74 70.76 28.5 69.83 22.94 71.11 17.33 74.63 7.57 76.3 0 75.9 0 81.09 7.57 81.49 17.33 79.82"/>
        <polygon class="cls-2" points="130.84 67.71 110.59 68.39 95.09 70.87 70.67 69.98 55 63.59 27.49 62.53 18.93 64.51 13.57 67.87 6.94 69 0 68.64 0 73.82 0 75.9 7.57 76.3 17.33 74.63 22.94 71.11 28.5 69.83 52.74 70.76 68.42 77.16 95.75 78.16 111.62 75.61 130.56 74.98 138.9 75.68 138.9 73.58 138.9 68.39 130.84 67.71"/>
      </g>
    </g>
  </g>
</svg>