<?xml version="1.0" encoding="UTF-8"?>
<svg id="Layer_2" data-name="Layer 2" xmlns="http://www.w3.org/2000/svg" viewBox="0 0 138.9 138.9">
  <defs>
    <style>
      .cls-1 {
        fill: #2e252e;
      }

      .cls-2 {
        fill: #3b323b;
      }

      .cls-3 {
        fill: #261a26;
      }
    </style>
  </defs>
  <g id="Layer_1-2" data-name="Layer 1">
    <g>
      <rect class="cls-3" width="138.9" height="138.9"/>
      <g>
        <polygon class="cls-2" points="138.24 43.12 127.63 41.8 121.99 39.23 117.12 38.41 94.4 39.04 78.71 43.7 50.04 44.46 33.96 42.58 15.75 42.14 .26 43.1 0 43.09 0 45.35 .26 45.36 15.75 44.4 33.96 44.84 50.04 46.72 78.71 45.96 94.4 41.3 117.12 40.67 121.99 41.48 127.63 44.06 138.24 45.38 138.9 45.35 138.9 43.1 138.24 43.12"/>
        <polygon class="cls-1" points="133.78 39.92 128.44 37.48 119.2 35.92 90.17 36.74 74.5 41.39 51.43 42 36.14 40.22 15.15 39.71 0 40.64 0 42.9 0 43.09 .26 43.1 15.75 42.14 33.96 42.58 50.04 44.46 78.71 43.7 94.4 39.04 117.12 38.41 121.99 39.23 127.63 41.8 138.24 43.12 138.9 43.1 138.9 42.81 138.9 40.55 133.78 39.92"/>
      </g>
      <g>
        <polygon class="cls-2" points="133.78 10.39 128.44 12.33 111.21 13.57 82.19 12.92 66.52 9.22 41.98 8.66 33.59 11.18 15.98 12 0 9.81 0 8.01 0 7.86 .26 7.85 16.57 10.06 31.41 9.29 40.59 6.7 70.72 7.37 86.41 11.09 109.14 11.59 121.99 10.94 127.63 8.89 138.24 7.84 138.9 7.86 138.9 8.08 138.9 9.88 133.78 10.39"/>
        <polygon class="cls-1" points="138.24 6.04 127.63 7.09 121.99 9.14 109.14 9.79 86.41 9.29 70.72 5.57 40.59 4.9 31.41 7.49 16.57 8.26 .26 6.05 0 6.06 0 6.68 0 7.86 0 8.48 .26 8.47 16.57 10.68 31.41 9.91 40.59 7.31 70.72 7.99 86.41 11.7 109.14 12.21 121.99 11.56 127.63 9.51 138.24 8.45 138.9 8.48 138.9 7.86 138.9 6.68 138.9 6.06 138.24 6.04"/>
      </g>
      <g>
        <polygon class="cls-2" points="17.33 73.29 22.94 72.05 28.5 71.6 52.74 71.93 68.42 74.18 95.75 74.53 111.62 73.63 130.56 73.41 138.9 73.66 138.9 71.84 130.56 71.59 111.62 71.81 95.75 72.71 68.42 72.36 52.74 70.11 28.5 69.79 22.94 70.24 17.33 71.47 7.57 72.06 0 71.92 0 73.73 7.57 73.88 17.33 73.29"/>
        <polygon class="cls-1" points="130.84 69.04 110.59 69.28 95.09 70.15 70.67 69.84 55 67.6 27.49 67.23 18.93 67.92 13.57 69.1 6.94 69.5 0 69.37 0 71.19 0 71.92 7.57 72.06 17.33 71.47 22.94 70.24 28.5 69.79 52.74 70.11 68.42 72.36 95.75 72.71 111.62 71.81 130.56 71.59 138.9 71.84 138.9 71.1 138.9 69.28 130.84 69.04"/>
      </g>
      <g>
        <polygon class="cls-2" points="138.24 127.77 127.63 126.45 121.99 123.88 117.12 123.06 94.4 123.7 78.71 128.35 50.04 129.11 33.96 127.24 15.75 126.8 .26 127.75 0 127.74 0 130 .26 130.01 15.75 129.05 33.96 129.5 50.04 131.37 78.71 130.61 94.4 125.96 117.12 125.32 121.99 126.14 127.63 128.71 138.24 130.03 138.9 130.01 138.9 127.75 138.24 127.77"/>
        <polygon class="cls-1" points="133.78 124.57 128.44 122.13 119.2 120.58 90.17 121.39 74.5 126.04 51.43 126.65 36.14 124.87 15.15 124.36 0 125.29 0 127.55 0 127.74 .26 127.75 15.75 126.8 33.96 127.24 50.04 129.11 78.71 128.35 94.4 123.7 117.12 123.06 121.99 123.88 127.63 126.45 138.24 127.77 138.9 127.75 138.9 127.46 138.9 125.21 133.78 124.57"/>
      </g>
      <g>
        <polygon class="cls-2" points="133.78 99.95 128.44 101.89 111.21 103.13 82.19 102.48 66.52 98.77 41.98 98.21 33.59 100.74 15.98 101.56 0 99.37 0 97.57 0 97.42 .26 97.41 16.57 99.62 31.41 98.85 40.59 96.25 70.72 96.93 86.41 100.64 109.14 101.15 121.99 100.5 127.63 98.45 138.24 97.39 138.9 97.41 138.9 97.64 138.9 99.44 133.78 99.95"/>
        <polygon class="cls-1" points="138.24 95.59 127.63 96.65 121.99 98.7 109.14 99.35 86.41 98.84 70.72 95.13 40.59 94.45 31.41 97.05 16.57 97.82 .26 95.61 0 95.62 0 96.24 0 97.42 0 98.04 .26 98.03 16.57 100.24 31.41 99.47 40.59 96.87 70.72 97.55 86.41 101.26 109.14 101.77 121.99 101.12 127.63 99.07 138.24 98.01 138.9 98.03 138.9 97.41 138.9 96.23 138.9 95.61 138.24 95.59"/>
      </g>
    </g>
  </g>
</svg>