<?xml version="1.0" encoding="UTF-8" standalone="no"?>
<!DOCTYPE svg PUBLIC "-//W3C//DTD SVG 1.1//EN" "http://www.w3.org/Graphics/SVG/1.1/DTD/svg11.dtd">
<svg width="100%" height="100%" viewBox="0 0 2560 1440" version="1.1" xmlns="http://www.w3.org/2000/svg" xmlns:xlink="http://www.w3.org/1999/xlink" xml:space="preserve" xmlns:serif="http://www.serif.com/" style="fill-rule:evenodd;clip-rule:evenodd;stroke-linejoin:round;stroke-miterlimit:2;">
    <g id="Frame" transform="matrix(1,0,0,1,8.43309,22.9854)">
        <g transform="matrix(0.900085,0,0,0.951109,117.466,25.7588)">
            <rect x="225.016" y="162.17" width="2133.13" height="1135.52" style="fill:rgb(235,235,235);fill-opacity:0;"/>
            <path d="M2315.82,170.055C2311.22,170.055 2307.49,166.522 2307.49,162.17C2307.49,157.818 2311.22,154.284 2315.82,154.284L2358.15,154.284C2362.75,154.284 2366.48,157.815 2366.48,162.17L2366.48,202.724C2366.48,207.076 2362.75,210.609 2358.15,210.609C2353.55,210.609 2349.82,207.076 2349.82,202.724L2349.82,170.055L2315.82,170.055ZM2349.82,235.167C2349.82,230.815 2353.55,227.282 2358.15,227.282C2362.75,227.282 2366.48,230.815 2366.48,235.167L2366.48,316.275C2366.48,320.627 2362.75,324.161 2358.15,324.161C2353.55,324.161 2349.82,320.627 2349.82,316.275L2349.82,235.167ZM2349.82,348.72C2349.82,344.368 2353.55,340.834 2358.15,340.834C2362.75,340.834 2366.48,344.368 2366.48,348.72L2366.48,429.828C2366.48,434.181 2362.75,437.714 2358.15,437.714C2353.55,437.714 2349.82,434.181 2349.82,429.828L2349.82,348.72ZM2349.82,462.27C2349.82,457.918 2353.55,454.385 2358.15,454.385C2362.75,454.385 2366.48,457.918 2366.48,462.27L2366.48,543.379C2366.48,547.732 2362.75,551.265 2358.15,551.265C2353.55,551.265 2349.82,547.732 2349.82,543.379L2349.82,462.27ZM2349.82,575.821C2349.82,571.469 2353.55,567.935 2358.15,567.935C2362.75,567.935 2366.48,571.469 2366.48,575.821L2366.48,656.929C2366.48,661.281 2362.75,664.814 2358.15,664.814C2353.55,664.814 2349.82,661.281 2349.82,656.929L2349.82,575.821ZM2349.82,689.374C2349.82,685.022 2353.55,681.488 2358.15,681.488C2362.75,681.488 2366.48,685.022 2366.48,689.374L2366.48,770.483C2366.48,774.835 2362.75,778.369 2358.15,778.369C2353.55,778.369 2349.82,774.835 2349.82,770.483L2349.82,689.374ZM2349.82,802.924C2349.82,798.572 2353.55,795.039 2358.15,795.039C2362.75,795.039 2366.48,798.572 2366.48,802.924L2366.48,884.033C2366.48,888.385 2362.75,891.919 2358.15,891.919C2353.55,891.919 2349.82,888.385 2349.82,884.033L2349.82,802.924ZM2349.82,916.477C2349.82,912.125 2353.55,908.592 2358.15,908.592C2362.75,908.592 2366.48,912.125 2366.48,916.477L2366.48,997.585C2366.48,1001.94 2362.75,1005.47 2358.15,1005.47C2353.55,1005.47 2349.82,1001.94 2349.82,997.585L2349.82,916.477ZM2349.82,1030.03C2349.82,1025.68 2353.55,1022.14 2358.15,1022.14C2362.75,1022.14 2366.48,1025.68 2366.48,1030.03L2366.48,1111.14C2366.48,1115.49 2362.75,1119.02 2358.15,1119.02C2353.55,1119.02 2349.82,1115.49 2349.82,1111.14L2349.82,1030.03ZM2349.82,1143.58C2349.82,1139.23 2353.55,1135.69 2358.15,1135.69C2362.75,1135.69 2366.48,1139.23 2366.48,1143.58L2366.48,1224.69C2366.48,1229.04 2362.75,1232.57 2358.15,1232.57C2353.55,1232.57 2349.82,1229.04 2349.82,1224.69L2349.82,1143.58ZM2349.82,1257.13C2349.82,1252.78 2353.55,1249.25 2358.15,1249.25C2362.75,1249.25 2366.48,1252.78 2366.48,1257.13L2366.48,1297.69C2366.48,1302.04 2362.75,1305.57 2358.15,1305.57L2315.82,1305.57C2311.22,1305.57 2307.49,1302.04 2307.49,1297.69C2307.49,1293.33 2311.22,1289.8 2315.82,1289.8L2349.82,1289.8L2349.82,1257.13ZM2281.97,1289.8C2286.56,1289.8 2290.3,1293.33 2290.3,1297.69C2290.3,1302.04 2286.56,1305.57 2281.97,1305.57L2197.32,1305.57C2192.72,1305.57 2188.98,1302.04 2188.98,1297.69C2188.98,1293.33 2192.72,1289.8 2197.32,1289.8L2281.97,1289.8ZM2163.46,1289.8C2168.06,1289.8 2171.79,1293.33 2171.79,1297.69C2171.79,1302.04 2168.06,1305.57 2163.46,1305.57L2078.81,1305.57C2074.21,1305.57 2070.48,1302.04 2070.48,1297.69C2070.48,1293.33 2074.21,1289.8 2078.81,1289.8L2163.46,1289.8ZM2044.95,1289.8C2049.55,1289.8 2053.28,1293.33 2053.28,1297.69C2053.28,1302.04 2049.55,1305.57 2044.95,1305.57L1960.3,1305.57C1955.7,1305.57 1951.97,1302.04 1951.97,1297.69C1951.97,1293.33 1955.7,1289.8 1960.3,1289.8L2044.95,1289.8ZM1926.44,1289.8C1931.04,1289.8 1934.78,1293.33 1934.78,1297.69C1934.78,1302.04 1931.04,1305.57 1926.44,1305.57L1841.8,1305.57C1837.2,1305.57 1833.47,1302.04 1833.47,1297.69C1833.47,1293.33 1837.2,1289.8 1841.8,1289.8L1926.44,1289.8ZM1807.93,1289.8C1812.53,1289.8 1816.27,1293.33 1816.27,1297.69C1816.27,1302.04 1812.53,1305.57 1807.93,1305.57L1723.29,1305.57C1718.69,1305.57 1714.95,1302.04 1714.95,1297.69C1714.95,1293.33 1718.69,1289.8 1723.29,1289.8L1807.93,1289.8ZM1689.43,1289.8C1694.03,1289.8 1697.76,1293.33 1697.76,1297.69C1697.76,1302.04 1694.03,1305.57 1689.43,1305.57L1604.78,1305.57C1600.18,1305.57 1596.45,1302.04 1596.45,1297.69C1596.45,1293.33 1600.18,1289.8 1604.78,1289.8L1689.43,1289.8ZM1570.92,1289.8C1575.52,1289.8 1579.26,1293.33 1579.26,1297.69C1579.26,1302.04 1575.52,1305.57 1570.92,1305.57L1486.28,1305.57C1481.68,1305.57 1477.94,1302.04 1477.94,1297.69C1477.94,1293.33 1481.68,1289.8 1486.28,1289.8L1570.92,1289.8ZM1452.41,1289.8C1457.01,1289.8 1460.75,1293.33 1460.75,1297.69C1460.75,1302.04 1457.01,1305.57 1452.41,1305.57L1367.76,1305.57C1363.16,1305.57 1359.43,1302.04 1359.43,1297.69C1359.43,1293.33 1363.16,1289.8 1367.76,1289.8L1452.41,1289.8ZM1333.91,1289.8C1338.51,1289.8 1342.24,1293.33 1342.24,1297.69C1342.24,1302.04 1338.51,1305.57 1333.91,1305.57L1249.26,1305.57C1244.66,1305.57 1240.92,1302.04 1240.92,1297.69C1240.92,1293.33 1244.66,1289.8 1249.26,1289.8L1333.91,1289.8ZM1215.4,1289.8C1220,1289.8 1223.73,1293.33 1223.73,1297.69C1223.73,1302.04 1220,1305.57 1215.4,1305.57L1130.75,1305.57C1126.15,1305.57 1122.42,1302.04 1122.42,1297.69C1122.42,1293.33 1126.15,1289.8 1130.75,1289.8L1215.4,1289.8ZM1096.89,1289.8C1101.49,1289.8 1105.23,1293.33 1105.23,1297.69C1105.23,1302.04 1101.49,1305.57 1096.89,1305.57L1012.25,1305.57C1007.65,1305.57 1003.92,1302.04 1003.92,1297.69C1003.92,1293.33 1007.65,1289.8 1012.25,1289.8L1096.89,1289.8ZM978.383,1289.8C982.982,1289.8 986.716,1293.33 986.716,1297.69C986.716,1302.04 982.982,1305.57 978.383,1305.57L893.736,1305.57C889.137,1305.57 885.403,1302.04 885.403,1297.69C885.403,1293.33 889.137,1289.8 893.736,1289.8L978.383,1289.8ZM859.879,1289.8C864.478,1289.8 868.212,1293.33 868.212,1297.69C868.212,1302.04 864.478,1305.57 859.879,1305.57L775.232,1305.57C770.633,1305.57 766.899,1302.04 766.899,1297.69C766.899,1293.33 770.633,1289.8 775.232,1289.8L859.879,1289.8ZM741.37,1289.8C745.968,1289.8 749.702,1293.33 749.702,1297.69C749.702,1302.04 745.968,1305.57 741.37,1305.57L656.721,1305.57C652.122,1305.57 648.388,1302.04 648.388,1297.69C648.388,1293.33 652.122,1289.8 656.721,1289.8L741.37,1289.8ZM622.864,1289.8C627.463,1289.8 631.196,1293.33 631.196,1297.69C631.196,1302.04 627.463,1305.57 622.864,1305.57L538.215,1305.57C533.617,1305.57 529.883,1302.04 529.883,1297.69C529.883,1293.33 533.617,1289.8 538.215,1289.8L622.864,1289.8ZM504.355,1289.8C508.954,1289.8 512.687,1293.33 512.687,1297.69C512.687,1302.04 508.954,1305.57 504.355,1305.57L419.707,1305.57C415.108,1305.57 411.374,1302.04 411.374,1297.69C411.374,1293.33 415.108,1289.8 419.707,1289.8L504.355,1289.8ZM385.848,1289.8C390.447,1289.8 394.181,1293.33 394.181,1297.69C394.181,1302.04 390.447,1305.57 385.848,1305.57L301.2,1305.57C296.601,1305.57 292.868,1302.04 292.868,1297.69C292.868,1293.33 296.601,1289.8 301.2,1289.8L385.848,1289.8ZM267.341,1289.8C271.939,1289.8 275.673,1293.33 275.673,1297.69C275.673,1302.04 271.939,1305.57 267.341,1305.57L225.016,1305.57C220.415,1305.57 216.684,1302.04 216.684,1297.69L216.684,1257.13C216.684,1252.78 220.418,1249.25 225.016,1249.25C229.615,1249.25 233.349,1252.78 233.349,1257.13L233.349,1289.8L267.341,1289.8ZM233.349,1224.69C233.349,1229.04 229.615,1232.58 225.016,1232.58C220.418,1232.58 216.684,1229.04 216.684,1224.69L216.684,1143.58C216.684,1139.23 220.418,1135.7 225.016,1135.7C229.615,1135.7 233.349,1139.23 233.349,1143.58L233.349,1224.69ZM233.349,1111.14C233.349,1115.49 229.615,1119.02 225.016,1119.02C220.418,1119.02 216.684,1115.49 216.684,1111.14L216.684,1030.03C216.684,1025.68 220.418,1022.14 225.016,1022.14C229.615,1022.14 233.349,1025.68 233.349,1030.03L233.349,1111.14ZM233.349,997.586C233.349,1001.94 229.615,1005.47 225.016,1005.47C220.418,1005.47 216.684,1001.94 216.684,997.586L216.684,916.477C216.684,912.125 220.418,908.591 225.016,908.591C229.615,908.591 233.349,912.125 233.349,916.477L233.349,997.586ZM233.349,884.035C233.349,888.388 229.615,891.921 225.016,891.921C220.418,891.921 216.684,888.388 216.684,884.035L216.684,802.928C216.684,798.576 220.418,795.042 225.016,795.042C229.615,795.042 233.349,798.576 233.349,802.928L233.349,884.035ZM233.349,770.482C233.349,774.834 229.615,778.368 225.016,778.368C220.418,778.368 216.684,774.834 216.684,770.482L216.684,689.373C216.684,685.021 220.418,681.488 225.016,681.488C229.615,681.488 233.349,685.021 233.349,689.373L233.349,770.482ZM233.349,656.932C233.349,661.284 229.615,664.818 225.016,664.818C220.418,664.818 216.684,661.284 216.684,656.932L216.684,575.823C216.684,571.471 220.418,567.938 225.016,567.938C229.615,567.938 233.349,571.471 233.349,575.823L233.349,656.932ZM233.349,543.379C233.349,547.731 229.615,551.265 225.016,551.265C220.418,551.265 216.684,547.731 216.684,543.379L216.684,462.271C216.684,457.919 220.418,454.385 225.016,454.385C229.615,454.385 233.349,457.919 233.349,462.271L233.349,543.379ZM233.349,429.827C233.349,434.179 229.615,437.712 225.016,437.712C220.418,437.712 216.684,434.179 216.684,429.827L216.684,348.718C216.684,344.366 220.418,340.833 225.016,340.833C229.615,340.833 233.349,344.366 233.349,348.718L233.349,429.827ZM233.349,316.276C233.349,320.628 229.615,324.162 225.016,324.162C220.418,324.162 216.684,320.628 216.684,316.276L216.684,235.168C216.684,230.816 220.418,227.283 225.016,227.283C229.615,227.283 233.349,230.816 233.349,235.168L233.349,316.276ZM233.349,202.724C233.349,207.076 229.615,210.609 225.016,210.609C220.418,210.609 216.684,207.076 216.684,202.724L216.684,162.17C216.684,157.815 220.415,154.284 225.016,154.284L267.341,154.284C271.939,154.284 275.673,157.818 275.673,162.17C275.673,166.522 271.939,170.055 267.341,170.055L233.349,170.055L233.349,202.724ZM301.2,170.055C296.601,170.055 292.867,166.522 292.867,162.17C292.867,157.818 296.601,154.284 301.2,154.284L385.848,154.284C390.447,154.284 394.181,157.818 394.181,162.17C394.181,166.522 390.447,170.055 385.848,170.055L301.2,170.055ZM419.708,170.055C415.109,170.055 411.375,166.522 411.375,162.17C411.375,157.818 415.109,154.284 419.708,154.284L504.355,154.284C508.954,154.284 512.688,157.818 512.688,162.17C512.688,166.522 508.954,170.055 504.355,170.055L419.708,170.055ZM538.216,170.055C533.618,170.055 529.884,166.522 529.884,162.17C529.884,157.818 533.618,154.284 538.216,154.284L622.864,154.284C627.462,154.284 631.196,157.818 631.196,162.17C631.196,166.522 627.462,170.055 622.864,170.055L538.216,170.055ZM656.72,170.055C652.121,170.055 648.388,166.522 648.388,162.17C648.388,157.818 652.121,154.284 656.72,154.284L741.368,154.284C745.967,154.284 749.7,157.818 749.7,162.17C749.7,166.522 745.967,170.055 741.368,170.055L656.72,170.055ZM775.231,170.055C770.632,170.055 766.898,166.522 766.898,162.17C766.898,157.818 770.632,154.284 775.231,154.284L859.88,154.284C864.478,154.284 868.212,157.818 868.212,162.17C868.212,166.522 864.478,170.055 859.88,170.055L775.231,170.055ZM893.738,170.055C889.139,170.055 885.405,166.522 885.405,162.17C885.405,157.818 889.139,154.284 893.738,154.284L978.386,154.284C982.985,154.284 986.718,157.818 986.718,162.17C986.718,166.522 982.985,170.055 978.386,170.055L893.738,170.055ZM1012.24,170.055C1007.64,170.055 1003.91,166.522 1003.91,162.17C1003.91,157.818 1007.64,154.284 1012.24,154.284L1096.89,154.284C1101.49,154.284 1105.22,157.818 1105.22,162.17C1105.22,166.522 1101.49,170.055 1096.89,170.055L1012.24,170.055ZM1130.75,170.055C1126.15,170.055 1122.42,166.522 1122.42,162.17C1122.42,157.818 1126.15,154.284 1130.75,154.284L1215.4,154.284C1220,154.284 1223.74,157.818 1223.74,162.17C1223.74,166.522 1220,170.055 1215.4,170.055L1130.75,170.055ZM1249.26,170.055C1244.66,170.055 1240.93,166.522 1240.93,162.17C1240.93,157.818 1244.66,154.284 1249.26,154.284L1333.91,154.284C1338.51,154.284 1342.24,157.818 1342.24,162.17C1342.24,166.522 1338.51,170.055 1333.91,170.055L1249.26,170.055ZM1367.77,170.055C1363.17,170.055 1359.43,166.522 1359.43,162.17C1359.43,157.818 1363.17,154.284 1367.77,154.284L1452.41,154.284C1457.01,154.284 1460.75,157.818 1460.75,162.17C1460.75,166.522 1457.01,170.055 1452.41,170.055L1367.77,170.055ZM1486.27,170.055C1481.67,170.055 1477.94,166.522 1477.94,162.17C1477.94,157.818 1481.67,154.284 1486.27,154.284L1570.92,154.284C1575.52,154.284 1579.25,157.818 1579.25,162.17C1579.25,166.522 1575.52,170.055 1570.92,170.055L1486.27,170.055ZM1604.78,170.055C1600.18,170.055 1596.45,166.522 1596.45,162.17C1596.45,157.818 1600.18,154.284 1604.78,154.284L1689.43,154.284C1694.03,154.284 1697.76,157.818 1697.76,162.17C1697.76,166.522 1694.03,170.055 1689.43,170.055L1604.78,170.055ZM1723.29,170.055C1718.69,170.055 1714.95,166.522 1714.95,162.17C1714.95,157.818 1718.69,154.284 1723.29,154.284L1807.93,154.284C1812.53,154.284 1816.27,157.818 1816.27,162.17C1816.27,166.522 1812.53,170.055 1807.93,170.055L1723.29,170.055ZM1841.8,170.055C1837.2,170.055 1833.46,166.522 1833.46,162.17C1833.46,157.818 1837.2,154.284 1841.8,154.284L1926.44,154.284C1931.04,154.284 1934.78,157.818 1934.78,162.17C1934.78,166.522 1931.04,170.055 1926.44,170.055L1841.8,170.055ZM1960.3,170.055C1955.7,170.055 1951.97,166.522 1951.97,162.17C1951.97,157.818 1955.7,154.284 1960.3,154.284L2044.95,154.284C2049.55,154.284 2053.28,157.818 2053.28,162.17C2053.28,166.522 2049.55,170.055 2044.95,170.055L1960.3,170.055ZM2078.81,170.055C2074.21,170.055 2070.48,166.522 2070.48,162.17C2070.48,157.818 2074.21,154.284 2078.81,154.284L2163.46,154.284C2168.06,154.284 2171.79,157.818 2171.79,162.17C2171.79,166.522 2168.06,170.055 2163.46,170.055L2078.81,170.055ZM2197.32,170.055C2192.72,170.055 2188.98,166.522 2188.98,162.17C2188.98,157.818 2192.72,154.284 2197.32,154.284L2281.97,154.284C2286.56,154.284 2290.3,157.818 2290.3,162.17C2290.3,166.522 2286.56,170.055 2281.97,170.055L2197.32,170.055Z" style="fill:rgb(255,67,67);"/>
        </g>
        <g transform="matrix(1.31909,0,0,1.31909,255.845,540.834)">
            <g transform="matrix(42.8389,0,0,42.8389,1357.05,586.472)">
                <path d="M0.277,-0C0.27,-0 0.265,-0.003 0.26,-0.008C0.255,-0.012 0.252,-0.018 0.252,-0.025L0.252,-0.501L0.115,-0.396C0.109,-0.391 0.103,-0.39 0.097,-0.391C0.09,-0.392 0.085,-0.396 0.08,-0.402L0.021,-0.479C0.017,-0.485 0.016,-0.492 0.017,-0.499C0.018,-0.505 0.021,-0.511 0.028,-0.515L0.258,-0.693C0.262,-0.696 0.266,-0.698 0.27,-0.699C0.273,-0.7 0.277,-0.7 0.282,-0.7L0.407,-0.7C0.414,-0.7 0.42,-0.698 0.425,-0.693C0.43,-0.688 0.432,-0.682 0.432,-0.675L0.432,-0.025C0.432,-0.018 0.43,-0.012 0.425,-0.008C0.42,-0.003 0.414,-0 0.407,-0L0.277,-0Z" style="fill:rgb(255,67,67);fill-rule:nonzero;"/>
            </g>
            <g transform="matrix(42.8389,0,0,42.8389,1378.34,586.472)">
                <path d="M0.174,-0C0.168,-0 0.163,-0.002 0.159,-0.007C0.155,-0.011 0.153,-0.016 0.153,-0.022C0.153,-0.025 0.154,-0.028 0.155,-0.03C0.156,-0.032 0.156,-0.034 0.157,-0.035L0.298,-0.228C0.289,-0.226 0.279,-0.225 0.269,-0.225C0.239,-0.227 0.21,-0.234 0.181,-0.246C0.152,-0.257 0.127,-0.273 0.104,-0.294C0.081,-0.314 0.062,-0.338 0.049,-0.366C0.036,-0.394 0.029,-0.425 0.029,-0.46C0.029,-0.492 0.035,-0.523 0.047,-0.553C0.059,-0.582 0.077,-0.609 0.101,-0.633C0.125,-0.656 0.155,-0.675 0.191,-0.689C0.226,-0.703 0.268,-0.71 0.315,-0.71C0.363,-0.71 0.405,-0.704 0.442,-0.692C0.478,-0.679 0.508,-0.662 0.533,-0.64C0.558,-0.617 0.576,-0.591 0.589,-0.562C0.602,-0.532 0.608,-0.5 0.608,-0.467C0.608,-0.436 0.603,-0.408 0.592,-0.382C0.581,-0.356 0.567,-0.332 0.552,-0.309C0.536,-0.286 0.52,-0.262 0.503,-0.239L0.343,-0.02C0.34,-0.017 0.336,-0.012 0.331,-0.008C0.326,-0.003 0.318,-0 0.307,-0L0.174,-0ZM0.317,-0.357C0.337,-0.357 0.355,-0.361 0.371,-0.37C0.387,-0.378 0.4,-0.39 0.409,-0.405C0.418,-0.42 0.423,-0.439 0.423,-0.461C0.423,-0.483 0.418,-0.502 0.409,-0.518C0.4,-0.533 0.387,-0.545 0.371,-0.554C0.355,-0.562 0.337,-0.566 0.317,-0.566C0.298,-0.566 0.28,-0.562 0.264,-0.554C0.248,-0.545 0.235,-0.533 0.226,-0.518C0.217,-0.502 0.212,-0.483 0.212,-0.461C0.212,-0.439 0.217,-0.42 0.226,-0.405C0.235,-0.39 0.248,-0.378 0.264,-0.37C0.28,-0.361 0.298,-0.357 0.317,-0.357Z" style="fill:rgb(255,67,67);fill-rule:nonzero;"/>
            </g>
            <g transform="matrix(42.8389,0,0,42.8389,1405.8,586.472)">
                <path d="M0.067,-0C0.06,-0 0.054,-0.003 0.049,-0.008C0.044,-0.012 0.041,-0.018 0.041,-0.025L0.041,-0.096C0.041,-0.101 0.042,-0.108 0.045,-0.118C0.048,-0.127 0.055,-0.136 0.066,-0.145L0.17,-0.247C0.223,-0.288 0.267,-0.322 0.302,-0.351C0.336,-0.379 0.361,-0.404 0.378,-0.426C0.395,-0.448 0.403,-0.469 0.403,-0.488C0.403,-0.511 0.397,-0.53 0.386,-0.545C0.374,-0.56 0.354,-0.567 0.325,-0.567C0.306,-0.567 0.29,-0.563 0.277,-0.555C0.264,-0.546 0.255,-0.535 0.248,-0.522C0.241,-0.509 0.236,-0.495 0.233,-0.481C0.23,-0.472 0.226,-0.466 0.22,-0.463C0.213,-0.46 0.206,-0.458 0.199,-0.458L0.074,-0.458C0.068,-0.458 0.063,-0.46 0.059,-0.464C0.055,-0.468 0.053,-0.473 0.053,-0.479C0.054,-0.511 0.061,-0.541 0.074,-0.57C0.087,-0.598 0.105,-0.623 0.129,-0.644C0.152,-0.665 0.181,-0.682 0.214,-0.695C0.247,-0.707 0.284,-0.713 0.325,-0.713C0.382,-0.713 0.43,-0.704 0.47,-0.686C0.509,-0.667 0.539,-0.642 0.56,-0.61C0.581,-0.577 0.591,-0.539 0.591,-0.496C0.591,-0.463 0.584,-0.433 0.57,-0.405C0.555,-0.376 0.535,-0.349 0.509,-0.324C0.482,-0.298 0.451,-0.271 0.415,-0.244L0.323,-0.151L0.58,-0.151C0.587,-0.151 0.594,-0.149 0.599,-0.144C0.604,-0.139 0.606,-0.133 0.606,-0.126L0.606,-0.025C0.606,-0.018 0.604,-0.012 0.599,-0.008C0.594,-0.003 0.587,-0 0.58,-0L0.067,-0Z" style="fill:rgb(255,67,67);fill-rule:nonzero;"/>
            </g>
            <g transform="matrix(42.8389,0,0,42.8389,1433.65,586.472)">
                <path d="M0.339,0.01C0.291,0.01 0.25,0.003 0.215,-0.011C0.18,-0.024 0.15,-0.043 0.127,-0.067C0.104,-0.091 0.086,-0.119 0.074,-0.151C0.062,-0.183 0.055,-0.217 0.053,-0.254C0.052,-0.272 0.052,-0.293 0.052,-0.316C0.051,-0.339 0.051,-0.362 0.052,-0.386C0.052,-0.409 0.052,-0.43 0.053,-0.449C0.055,-0.486 0.062,-0.52 0.075,-0.552C0.087,-0.583 0.105,-0.611 0.129,-0.635C0.152,-0.658 0.182,-0.677 0.217,-0.69C0.252,-0.703 0.292,-0.71 0.339,-0.71C0.386,-0.71 0.428,-0.703 0.463,-0.69C0.498,-0.677 0.527,-0.658 0.55,-0.635C0.573,-0.611 0.591,-0.583 0.604,-0.552C0.617,-0.52 0.624,-0.486 0.626,-0.449C0.627,-0.43 0.627,-0.409 0.628,-0.386L0.628,-0.316C0.627,-0.293 0.627,-0.272 0.626,-0.254C0.624,-0.217 0.617,-0.183 0.605,-0.151C0.592,-0.119 0.575,-0.091 0.552,-0.067C0.529,-0.043 0.5,-0.024 0.465,-0.011C0.43,0.003 0.388,0.01 0.339,0.01ZM0.339,-0.135C0.374,-0.135 0.399,-0.146 0.415,-0.169C0.43,-0.191 0.438,-0.221 0.439,-0.259C0.44,-0.278 0.441,-0.299 0.442,-0.32L0.442,-0.384C0.441,-0.405 0.44,-0.425 0.439,-0.443C0.438,-0.48 0.43,-0.509 0.415,-0.532C0.399,-0.555 0.374,-0.566 0.339,-0.567C0.305,-0.566 0.28,-0.555 0.265,-0.532C0.249,-0.509 0.24,-0.48 0.239,-0.443L0.239,-0.384C0.238,-0.363 0.238,-0.341 0.239,-0.32L0.239,-0.259C0.24,-0.221 0.249,-0.191 0.265,-0.169C0.281,-0.146 0.306,-0.135 0.339,-0.135Z" style="fill:rgb(255,67,67);fill-rule:nonzero;"/>
            </g>
            <g transform="matrix(42.8389,0,0,42.8389,1462.78,586.472)">
                <path d="M0.084,0.19C0.077,0.19 0.071,0.188 0.066,0.183C0.061,0.178 0.059,0.172 0.059,0.165L0.059,-0.495C0.059,-0.502 0.061,-0.508 0.066,-0.513C0.071,-0.518 0.077,-0.52 0.084,-0.52L0.197,-0.52C0.204,-0.52 0.21,-0.518 0.215,-0.513C0.22,-0.508 0.222,-0.502 0.222,-0.495L0.222,-0.459C0.238,-0.479 0.259,-0.496 0.284,-0.51C0.309,-0.523 0.34,-0.53 0.377,-0.53C0.41,-0.53 0.44,-0.525 0.465,-0.515C0.49,-0.504 0.512,-0.489 0.531,-0.469C0.549,-0.449 0.563,-0.425 0.573,-0.396C0.583,-0.367 0.589,-0.334 0.59,-0.297C0.591,-0.284 0.591,-0.271 0.591,-0.26C0.591,-0.249 0.591,-0.236 0.59,-0.223C0.589,-0.187 0.583,-0.155 0.573,-0.126C0.563,-0.097 0.549,-0.073 0.531,-0.053C0.513,-0.033 0.491,-0.017 0.466,-0.007C0.44,0.005 0.41,0.01 0.377,0.01C0.344,0.01 0.316,0.004 0.292,-0.008C0.267,-0.019 0.247,-0.036 0.231,-0.057L0.231,0.165C0.231,0.172 0.229,0.178 0.224,0.183C0.219,0.188 0.213,0.19 0.206,0.19L0.084,0.19ZM0.323,-0.124C0.346,-0.124 0.363,-0.129 0.376,-0.138C0.389,-0.147 0.398,-0.16 0.404,-0.176C0.409,-0.192 0.413,-0.21 0.414,-0.229C0.415,-0.25 0.415,-0.27 0.414,-0.291C0.413,-0.31 0.409,-0.328 0.404,-0.344C0.398,-0.36 0.389,-0.373 0.376,-0.382C0.363,-0.391 0.346,-0.396 0.323,-0.396C0.302,-0.396 0.284,-0.391 0.271,-0.382C0.258,-0.372 0.248,-0.359 0.242,-0.344C0.236,-0.329 0.232,-0.312 0.231,-0.294C0.23,-0.281 0.23,-0.269 0.23,-0.257C0.23,-0.245 0.23,-0.232 0.231,-0.219C0.232,-0.202 0.235,-0.187 0.242,-0.173C0.249,-0.158 0.259,-0.147 0.272,-0.138C0.285,-0.129 0.302,-0.124 0.323,-0.124Z" style="fill:rgb(255,67,67);fill-rule:nonzero;"/>
            </g>
            <g transform="matrix(42.8389,0,0,42.8389,1489.04,586.472)">
                <path d="M0.038,-0C0.032,-0 0.027,-0.002 0.023,-0.007C0.018,-0.011 0.016,-0.016 0.016,-0.023C0.016,-0.024 0.016,-0.027 0.017,-0.03C0.018,-0.033 0.019,-0.035 0.021,-0.038L0.188,-0.267L0.036,-0.482C0.034,-0.485 0.033,-0.487 0.032,-0.49C0.031,-0.493 0.03,-0.495 0.03,-0.498C0.03,-0.504 0.032,-0.509 0.037,-0.514C0.042,-0.518 0.047,-0.52 0.053,-0.52L0.175,-0.52C0.184,-0.52 0.19,-0.518 0.195,-0.514C0.199,-0.51 0.202,-0.506 0.204,-0.503L0.297,-0.375L0.389,-0.502C0.392,-0.505 0.395,-0.509 0.4,-0.514C0.404,-0.518 0.41,-0.52 0.419,-0.52L0.536,-0.52C0.542,-0.52 0.547,-0.518 0.552,-0.514C0.556,-0.509 0.558,-0.504 0.558,-0.498C0.558,-0.495 0.558,-0.493 0.557,-0.49C0.556,-0.487 0.555,-0.485 0.553,-0.482L0.397,-0.267L0.567,-0.038C0.569,-0.035 0.57,-0.033 0.571,-0.03C0.572,-0.027 0.572,-0.025 0.572,-0.023C0.572,-0.016 0.57,-0.011 0.566,-0.007C0.561,-0.002 0.556,-0 0.55,-0L0.422,-0C0.414,-0 0.408,-0.002 0.404,-0.006C0.4,-0.009 0.397,-0.013 0.394,-0.016L0.293,-0.153L0.191,-0.016C0.188,-0.013 0.185,-0.01 0.181,-0.006C0.177,-0.002 0.171,-0 0.163,-0L0.038,-0Z" style="fill:rgb(255,67,67);fill-rule:nonzero;"/>
            </g>
        </g>
        <g transform="matrix(8.07711e-17,1.31909,-1.31909,8.07711e-17,3036.69,-740.232)">
            <g transform="matrix(42.8389,0,0,42.8389,1357.05,586.472)">
                <path d="M0.277,-0C0.27,-0 0.265,-0.003 0.26,-0.008C0.255,-0.012 0.252,-0.018 0.252,-0.025L0.252,-0.501L0.115,-0.396C0.109,-0.391 0.103,-0.39 0.097,-0.391C0.09,-0.392 0.085,-0.396 0.08,-0.402L0.021,-0.479C0.017,-0.485 0.016,-0.492 0.017,-0.499C0.018,-0.505 0.021,-0.511 0.028,-0.515L0.258,-0.693C0.262,-0.696 0.266,-0.698 0.27,-0.699C0.273,-0.7 0.277,-0.7 0.282,-0.7L0.407,-0.7C0.414,-0.7 0.42,-0.698 0.425,-0.693C0.43,-0.688 0.432,-0.682 0.432,-0.675L0.432,-0.025C0.432,-0.018 0.43,-0.012 0.425,-0.008C0.42,-0.003 0.414,-0 0.407,-0L0.277,-0Z" style="fill:rgb(255,67,67);fill-rule:nonzero;"/>
            </g>
            <g transform="matrix(42.8389,0,0,42.8389,1378.34,586.472)">
                <path d="M0.339,0.01C0.291,0.01 0.25,0.003 0.215,-0.011C0.18,-0.024 0.15,-0.043 0.127,-0.067C0.104,-0.091 0.086,-0.119 0.074,-0.151C0.062,-0.183 0.055,-0.217 0.053,-0.254C0.052,-0.272 0.052,-0.293 0.052,-0.316C0.051,-0.339 0.051,-0.362 0.052,-0.386C0.052,-0.409 0.052,-0.43 0.053,-0.449C0.055,-0.486 0.062,-0.52 0.075,-0.552C0.087,-0.583 0.105,-0.611 0.129,-0.635C0.152,-0.658 0.182,-0.677 0.217,-0.69C0.252,-0.703 0.292,-0.71 0.339,-0.71C0.386,-0.71 0.428,-0.703 0.463,-0.69C0.498,-0.677 0.527,-0.658 0.55,-0.635C0.573,-0.611 0.591,-0.583 0.604,-0.552C0.617,-0.52 0.624,-0.486 0.626,-0.449C0.627,-0.43 0.627,-0.409 0.628,-0.386L0.628,-0.316C0.627,-0.293 0.627,-0.272 0.626,-0.254C0.624,-0.217 0.617,-0.183 0.605,-0.151C0.592,-0.119 0.575,-0.091 0.552,-0.067C0.529,-0.043 0.5,-0.024 0.465,-0.011C0.43,0.003 0.388,0.01 0.339,0.01ZM0.339,-0.135C0.374,-0.135 0.399,-0.146 0.415,-0.169C0.43,-0.191 0.438,-0.221 0.439,-0.259C0.44,-0.278 0.441,-0.299 0.442,-0.32L0.442,-0.384C0.441,-0.405 0.44,-0.425 0.439,-0.443C0.438,-0.48 0.43,-0.509 0.415,-0.532C0.399,-0.555 0.374,-0.566 0.339,-0.567C0.305,-0.566 0.28,-0.555 0.265,-0.532C0.249,-0.509 0.24,-0.48 0.239,-0.443L0.239,-0.384C0.238,-0.363 0.238,-0.341 0.239,-0.32L0.239,-0.259C0.24,-0.221 0.249,-0.191 0.265,-0.169C0.281,-0.146 0.306,-0.135 0.339,-0.135Z" style="fill:rgb(255,67,67);fill-rule:nonzero;"/>
            </g>
            <g transform="matrix(42.8389,0,0,42.8389,1407.47,586.472)">
                <path d="M0.338,0.01C0.289,0.01 0.246,0.004 0.209,-0.008C0.171,-0.019 0.141,-0.035 0.117,-0.055C0.093,-0.075 0.075,-0.098 0.063,-0.125C0.051,-0.152 0.045,-0.18 0.045,-0.21C0.045,-0.247 0.054,-0.279 0.073,-0.307C0.091,-0.335 0.114,-0.357 0.142,-0.372C0.119,-0.387 0.101,-0.407 0.089,-0.43C0.076,-0.452 0.07,-0.479 0.07,-0.51C0.07,-0.547 0.08,-0.581 0.099,-0.611C0.118,-0.641 0.148,-0.665 0.187,-0.683C0.226,-0.701 0.277,-0.71 0.338,-0.71C0.399,-0.71 0.449,-0.701 0.488,-0.684C0.527,-0.666 0.557,-0.642 0.576,-0.612C0.595,-0.582 0.604,-0.548 0.604,-0.511C0.604,-0.481 0.598,-0.454 0.586,-0.431C0.574,-0.407 0.557,-0.387 0.534,-0.372C0.564,-0.357 0.588,-0.336 0.606,-0.307C0.623,-0.278 0.632,-0.246 0.632,-0.209C0.632,-0.169 0.621,-0.132 0.6,-0.099C0.578,-0.066 0.545,-0.039 0.502,-0.02C0.459,0 0.404,0.01 0.338,0.01ZM0.338,-0.118C0.359,-0.118 0.379,-0.122 0.396,-0.129C0.413,-0.136 0.426,-0.147 0.436,-0.161C0.446,-0.174 0.451,-0.191 0.451,-0.21C0.451,-0.229 0.446,-0.246 0.436,-0.259C0.426,-0.272 0.413,-0.283 0.396,-0.29C0.379,-0.297 0.359,-0.301 0.338,-0.301C0.317,-0.301 0.297,-0.297 0.28,-0.29C0.263,-0.283 0.249,-0.272 0.239,-0.259C0.229,-0.246 0.224,-0.229 0.224,-0.21C0.224,-0.191 0.229,-0.174 0.239,-0.161C0.249,-0.147 0.263,-0.136 0.28,-0.129C0.297,-0.122 0.317,-0.118 0.338,-0.118ZM0.338,-0.422C0.357,-0.422 0.374,-0.426 0.389,-0.433C0.404,-0.44 0.416,-0.449 0.425,-0.461C0.434,-0.472 0.438,-0.486 0.438,-0.502C0.438,-0.518 0.434,-0.532 0.426,-0.544C0.417,-0.556 0.405,-0.565 0.39,-0.572C0.375,-0.579 0.357,-0.582 0.338,-0.582C0.319,-0.582 0.302,-0.579 0.287,-0.572C0.272,-0.565 0.26,-0.556 0.251,-0.544C0.242,-0.532 0.238,-0.518 0.238,-0.502C0.238,-0.486 0.242,-0.472 0.251,-0.46C0.26,-0.448 0.272,-0.439 0.287,-0.432C0.302,-0.425 0.319,-0.422 0.338,-0.422Z" style="fill:rgb(255,67,67);fill-rule:nonzero;"/>
            </g>
            <g transform="matrix(42.8389,0,0,42.8389,1436.48,586.472)">
                <path d="M0.339,0.01C0.291,0.01 0.25,0.003 0.215,-0.011C0.18,-0.024 0.15,-0.043 0.127,-0.067C0.104,-0.091 0.086,-0.119 0.074,-0.151C0.062,-0.183 0.055,-0.217 0.053,-0.254C0.052,-0.272 0.052,-0.293 0.052,-0.316C0.051,-0.339 0.051,-0.362 0.052,-0.386C0.052,-0.409 0.052,-0.43 0.053,-0.449C0.055,-0.486 0.062,-0.52 0.075,-0.552C0.087,-0.583 0.105,-0.611 0.129,-0.635C0.152,-0.658 0.182,-0.677 0.217,-0.69C0.252,-0.703 0.292,-0.71 0.339,-0.71C0.386,-0.71 0.428,-0.703 0.463,-0.69C0.498,-0.677 0.527,-0.658 0.55,-0.635C0.573,-0.611 0.591,-0.583 0.604,-0.552C0.617,-0.52 0.624,-0.486 0.626,-0.449C0.627,-0.43 0.627,-0.409 0.628,-0.386L0.628,-0.316C0.627,-0.293 0.627,-0.272 0.626,-0.254C0.624,-0.217 0.617,-0.183 0.605,-0.151C0.592,-0.119 0.575,-0.091 0.552,-0.067C0.529,-0.043 0.5,-0.024 0.465,-0.011C0.43,0.003 0.388,0.01 0.339,0.01ZM0.339,-0.135C0.374,-0.135 0.399,-0.146 0.415,-0.169C0.43,-0.191 0.438,-0.221 0.439,-0.259C0.44,-0.278 0.441,-0.299 0.442,-0.32L0.442,-0.384C0.441,-0.405 0.44,-0.425 0.439,-0.443C0.438,-0.48 0.43,-0.509 0.415,-0.532C0.399,-0.555 0.374,-0.566 0.339,-0.567C0.305,-0.566 0.28,-0.555 0.265,-0.532C0.249,-0.509 0.24,-0.48 0.239,-0.443L0.239,-0.384C0.238,-0.363 0.238,-0.341 0.239,-0.32L0.239,-0.259C0.24,-0.221 0.249,-0.191 0.265,-0.169C0.281,-0.146 0.306,-0.135 0.339,-0.135Z" style="fill:rgb(255,67,67);fill-rule:nonzero;"/>
            </g>
            <g transform="matrix(42.8389,0,0,42.8389,1465.61,586.472)">
                <path d="M0.084,0.19C0.077,0.19 0.071,0.188 0.066,0.183C0.061,0.178 0.059,0.172 0.059,0.165L0.059,-0.495C0.059,-0.502 0.061,-0.508 0.066,-0.513C0.071,-0.518 0.077,-0.52 0.084,-0.52L0.197,-0.52C0.204,-0.52 0.21,-0.518 0.215,-0.513C0.22,-0.508 0.222,-0.502 0.222,-0.495L0.222,-0.459C0.238,-0.479 0.259,-0.496 0.284,-0.51C0.309,-0.523 0.34,-0.53 0.377,-0.53C0.41,-0.53 0.44,-0.525 0.465,-0.515C0.49,-0.504 0.512,-0.489 0.531,-0.469C0.549,-0.449 0.563,-0.425 0.573,-0.396C0.583,-0.367 0.589,-0.334 0.59,-0.297C0.591,-0.284 0.591,-0.271 0.591,-0.26C0.591,-0.249 0.591,-0.236 0.59,-0.223C0.589,-0.187 0.583,-0.155 0.573,-0.126C0.563,-0.097 0.549,-0.073 0.531,-0.053C0.513,-0.033 0.491,-0.017 0.466,-0.007C0.44,0.005 0.41,0.01 0.377,0.01C0.344,0.01 0.316,0.004 0.292,-0.008C0.267,-0.019 0.247,-0.036 0.231,-0.057L0.231,0.165C0.231,0.172 0.229,0.178 0.224,0.183C0.219,0.188 0.213,0.19 0.206,0.19L0.084,0.19ZM0.323,-0.124C0.346,-0.124 0.363,-0.129 0.376,-0.138C0.389,-0.147 0.398,-0.16 0.404,-0.176C0.409,-0.192 0.413,-0.21 0.414,-0.229C0.415,-0.25 0.415,-0.27 0.414,-0.291C0.413,-0.31 0.409,-0.328 0.404,-0.344C0.398,-0.36 0.389,-0.373 0.376,-0.382C0.363,-0.391 0.346,-0.396 0.323,-0.396C0.302,-0.396 0.284,-0.391 0.271,-0.382C0.258,-0.372 0.248,-0.359 0.242,-0.344C0.236,-0.329 0.232,-0.312 0.231,-0.294C0.23,-0.281 0.23,-0.269 0.23,-0.257C0.23,-0.245 0.23,-0.232 0.231,-0.219C0.232,-0.202 0.235,-0.187 0.242,-0.173C0.249,-0.158 0.259,-0.147 0.272,-0.138C0.285,-0.129 0.302,-0.124 0.323,-0.124Z" style="fill:rgb(255,67,67);fill-rule:nonzero;"/>
            </g>
            <g transform="matrix(42.8389,0,0,42.8389,1491.87,586.472)">
                <path d="M0.038,-0C0.032,-0 0.027,-0.002 0.023,-0.007C0.018,-0.011 0.016,-0.016 0.016,-0.023C0.016,-0.024 0.016,-0.027 0.017,-0.03C0.018,-0.033 0.019,-0.035 0.021,-0.038L0.188,-0.267L0.036,-0.482C0.034,-0.485 0.033,-0.487 0.032,-0.49C0.031,-0.493 0.03,-0.495 0.03,-0.498C0.03,-0.504 0.032,-0.509 0.037,-0.514C0.042,-0.518 0.047,-0.52 0.053,-0.52L0.175,-0.52C0.184,-0.52 0.19,-0.518 0.195,-0.514C0.199,-0.51 0.202,-0.506 0.204,-0.503L0.297,-0.375L0.389,-0.502C0.392,-0.505 0.395,-0.509 0.4,-0.514C0.404,-0.518 0.41,-0.52 0.419,-0.52L0.536,-0.52C0.542,-0.52 0.547,-0.518 0.552,-0.514C0.556,-0.509 0.558,-0.504 0.558,-0.498C0.558,-0.495 0.558,-0.493 0.557,-0.49C0.556,-0.487 0.555,-0.485 0.553,-0.482L0.397,-0.267L0.567,-0.038C0.569,-0.035 0.57,-0.033 0.571,-0.03C0.572,-0.027 0.572,-0.025 0.572,-0.023C0.572,-0.016 0.57,-0.011 0.566,-0.007C0.561,-0.002 0.556,-0 0.55,-0L0.422,-0C0.414,-0 0.408,-0.002 0.404,-0.006C0.4,-0.009 0.397,-0.013 0.394,-0.016L0.293,-0.153L0.191,-0.016C0.188,-0.013 0.185,-0.01 0.181,-0.006C0.177,-0.002 0.171,-0 0.163,-0L0.038,-0Z" style="fill:rgb(255,67,67);fill-rule:nonzero;"/>
            </g>
        </g>
    </g>
    <g id="Character" transform="matrix(1,0,0,1,-214.245,-107.479)">
        <g transform="matrix(0.477008,0,0,0.806766,813.506,193.989)">
            <rect x="1488.4" y="870.04" width="134.17" height="267.736" style="fill:rgb(255,139,67);"/>
        </g>
        <g transform="matrix(6.34707e-16,-10.3656,0.387333,2.37173e-17,1092.81,15197.5)">
            <path d="M1358.88,968.679L1358.88,1111.91L1358.88,682.221L1358.88,825.45L1390.49,825.45L1390.49,682.221L1402.1,897.065L1390.49,1111.91L1390.49,968.679L1358.88,968.679Z" style="fill:rgb(255,67,67);"/>
        </g>
        <g transform="matrix(0.535815,0,0,0.281246,629.929,495.217)">
            <rect x="1357.05" y="582.171" width="310.614" height="17.737" style="fill:rgb(255,67,67);"/>
        </g>
        <g transform="matrix(0.843142,0,0,0.281246,225.359,948.175)">
            <rect x="1357.05" y="582.171" width="310.614" height="17.737"/>
        </g>
        <g transform="matrix(1.10161,0,0,1.10161,-135.816,41.7603)">
            <g transform="matrix(47.2125,0,0,47.2125,1353.85,547.312)">
                <path d="M0.389,-0C0.382,-0 0.377,-0.003 0.372,-0.008C0.367,-0.012 0.364,-0.018 0.364,-0.025L0.364,-0.138L0.053,-0.138C0.046,-0.138 0.041,-0.14 0.036,-0.145C0.031,-0.15 0.028,-0.156 0.028,-0.163L0.028,-0.258C0.028,-0.264 0.029,-0.27 0.032,-0.275C0.034,-0.28 0.036,-0.284 0.039,-0.289L0.33,-0.683C0.339,-0.694 0.351,-0.7 0.367,-0.7L0.513,-0.7C0.52,-0.7 0.526,-0.698 0.531,-0.693C0.536,-0.688 0.538,-0.682 0.538,-0.675L0.538,-0.287L0.626,-0.287C0.634,-0.287 0.64,-0.285 0.645,-0.28C0.65,-0.275 0.652,-0.269 0.652,-0.262L0.652,-0.163C0.652,-0.156 0.65,-0.15 0.645,-0.145C0.64,-0.14 0.634,-0.138 0.627,-0.138L0.538,-0.138L0.538,-0.025C0.538,-0.018 0.536,-0.012 0.531,-0.008C0.526,-0.003 0.52,-0 0.513,-0L0.389,-0ZM0.2,-0.28L0.368,-0.28L0.368,-0.516L0.2,-0.28Z" style="fill:rgb(255,67,67);fill-rule:nonzero;"/>
            </g>
            <g transform="matrix(47.2125,0,0,47.2125,1386.09,547.312)">
                <path d="M0.389,-0C0.382,-0 0.377,-0.003 0.372,-0.008C0.367,-0.012 0.364,-0.018 0.364,-0.025L0.364,-0.138L0.053,-0.138C0.046,-0.138 0.041,-0.14 0.036,-0.145C0.031,-0.15 0.028,-0.156 0.028,-0.163L0.028,-0.258C0.028,-0.264 0.029,-0.27 0.032,-0.275C0.034,-0.28 0.036,-0.284 0.039,-0.289L0.33,-0.683C0.339,-0.694 0.351,-0.7 0.367,-0.7L0.513,-0.7C0.52,-0.7 0.526,-0.698 0.531,-0.693C0.536,-0.688 0.538,-0.682 0.538,-0.675L0.538,-0.287L0.626,-0.287C0.634,-0.287 0.64,-0.285 0.645,-0.28C0.65,-0.275 0.652,-0.269 0.652,-0.262L0.652,-0.163C0.652,-0.156 0.65,-0.15 0.645,-0.145C0.64,-0.14 0.634,-0.138 0.627,-0.138L0.538,-0.138L0.538,-0.025C0.538,-0.018 0.536,-0.012 0.531,-0.008C0.526,-0.003 0.52,-0 0.513,-0L0.389,-0ZM0.2,-0.28L0.368,-0.28L0.368,-0.516L0.2,-0.28Z" style="fill:rgb(255,67,67);fill-rule:nonzero;"/>
            </g>
            <g transform="matrix(47.2125,0,0,47.2125,1418.34,547.312)">
                <path d="M0.338,0.01C0.289,0.01 0.246,0.004 0.209,-0.008C0.171,-0.019 0.141,-0.035 0.117,-0.055C0.093,-0.075 0.075,-0.098 0.063,-0.125C0.051,-0.152 0.045,-0.18 0.045,-0.21C0.045,-0.247 0.054,-0.279 0.073,-0.307C0.091,-0.335 0.114,-0.357 0.142,-0.372C0.119,-0.387 0.101,-0.407 0.089,-0.43C0.076,-0.452 0.07,-0.479 0.07,-0.51C0.07,-0.547 0.08,-0.581 0.099,-0.611C0.118,-0.641 0.148,-0.665 0.187,-0.683C0.226,-0.701 0.277,-0.71 0.338,-0.71C0.399,-0.71 0.449,-0.701 0.488,-0.684C0.527,-0.666 0.557,-0.642 0.576,-0.612C0.595,-0.582 0.604,-0.548 0.604,-0.511C0.604,-0.481 0.598,-0.454 0.586,-0.431C0.574,-0.407 0.557,-0.387 0.534,-0.372C0.564,-0.357 0.588,-0.336 0.606,-0.307C0.623,-0.278 0.632,-0.246 0.632,-0.209C0.632,-0.169 0.621,-0.132 0.6,-0.099C0.578,-0.066 0.545,-0.039 0.502,-0.02C0.459,0 0.404,0.01 0.338,0.01ZM0.338,-0.118C0.359,-0.118 0.379,-0.122 0.396,-0.129C0.413,-0.136 0.426,-0.147 0.436,-0.161C0.446,-0.174 0.451,-0.191 0.451,-0.21C0.451,-0.229 0.446,-0.246 0.436,-0.259C0.426,-0.272 0.413,-0.283 0.396,-0.29C0.379,-0.297 0.359,-0.301 0.338,-0.301C0.317,-0.301 0.297,-0.297 0.28,-0.29C0.263,-0.283 0.249,-0.272 0.239,-0.259C0.229,-0.246 0.224,-0.229 0.224,-0.21C0.224,-0.191 0.229,-0.174 0.239,-0.161C0.249,-0.147 0.263,-0.136 0.28,-0.129C0.297,-0.122 0.317,-0.118 0.338,-0.118ZM0.338,-0.422C0.357,-0.422 0.374,-0.426 0.389,-0.433C0.404,-0.44 0.416,-0.449 0.425,-0.461C0.434,-0.472 0.438,-0.486 0.438,-0.502C0.438,-0.518 0.434,-0.532 0.426,-0.544C0.417,-0.556 0.405,-0.565 0.39,-0.572C0.375,-0.579 0.357,-0.582 0.338,-0.582C0.319,-0.582 0.302,-0.579 0.287,-0.572C0.272,-0.565 0.26,-0.556 0.251,-0.544C0.242,-0.532 0.238,-0.518 0.238,-0.502C0.238,-0.486 0.242,-0.472 0.251,-0.46C0.26,-0.448 0.272,-0.439 0.287,-0.432C0.302,-0.425 0.319,-0.422 0.338,-0.422Z" style="fill:rgb(255,67,67);fill-rule:nonzero;"/>
            </g>
            <g transform="matrix(47.2125,0,0,47.2125,1450.3,547.312)">
                <path d="M0.084,0.19C0.077,0.19 0.071,0.188 0.066,0.183C0.061,0.178 0.059,0.172 0.059,0.165L0.059,-0.495C0.059,-0.502 0.061,-0.508 0.066,-0.513C0.071,-0.518 0.077,-0.52 0.084,-0.52L0.197,-0.52C0.204,-0.52 0.21,-0.518 0.215,-0.513C0.22,-0.508 0.222,-0.502 0.222,-0.495L0.222,-0.459C0.238,-0.479 0.259,-0.496 0.284,-0.51C0.309,-0.523 0.34,-0.53 0.377,-0.53C0.41,-0.53 0.44,-0.525 0.465,-0.515C0.49,-0.504 0.512,-0.489 0.531,-0.469C0.549,-0.449 0.563,-0.425 0.573,-0.396C0.583,-0.367 0.589,-0.334 0.59,-0.297C0.591,-0.284 0.591,-0.271 0.591,-0.26C0.591,-0.249 0.591,-0.236 0.59,-0.223C0.589,-0.187 0.583,-0.155 0.573,-0.126C0.563,-0.097 0.549,-0.073 0.531,-0.053C0.513,-0.033 0.491,-0.017 0.466,-0.007C0.44,0.005 0.41,0.01 0.377,0.01C0.344,0.01 0.316,0.004 0.292,-0.008C0.267,-0.019 0.247,-0.036 0.231,-0.057L0.231,0.165C0.231,0.172 0.229,0.178 0.224,0.183C0.219,0.188 0.213,0.19 0.206,0.19L0.084,0.19ZM0.323,-0.124C0.346,-0.124 0.363,-0.129 0.376,-0.138C0.389,-0.147 0.398,-0.16 0.404,-0.176C0.409,-0.192 0.413,-0.21 0.414,-0.229C0.415,-0.25 0.415,-0.27 0.414,-0.291C0.413,-0.31 0.409,-0.328 0.404,-0.344C0.398,-0.36 0.389,-0.373 0.376,-0.382C0.363,-0.391 0.346,-0.396 0.323,-0.396C0.302,-0.396 0.284,-0.391 0.271,-0.382C0.258,-0.372 0.248,-0.359 0.242,-0.344C0.236,-0.329 0.232,-0.312 0.231,-0.294C0.23,-0.281 0.23,-0.269 0.23,-0.257C0.23,-0.245 0.23,-0.232 0.231,-0.219C0.232,-0.202 0.235,-0.187 0.242,-0.173C0.249,-0.158 0.259,-0.147 0.272,-0.138C0.285,-0.129 0.302,-0.124 0.323,-0.124Z" style="fill:rgb(255,67,67);fill-rule:nonzero;"/>
            </g>
            <g transform="matrix(47.2125,0,0,47.2125,1479.24,547.312)">
                <path d="M0.038,-0C0.032,-0 0.027,-0.002 0.023,-0.007C0.018,-0.011 0.016,-0.016 0.016,-0.023C0.016,-0.024 0.016,-0.027 0.017,-0.03C0.018,-0.033 0.019,-0.035 0.021,-0.038L0.188,-0.267L0.036,-0.482C0.034,-0.485 0.033,-0.487 0.032,-0.49C0.031,-0.493 0.03,-0.495 0.03,-0.498C0.03,-0.504 0.032,-0.509 0.037,-0.514C0.042,-0.518 0.047,-0.52 0.053,-0.52L0.175,-0.52C0.184,-0.52 0.19,-0.518 0.195,-0.514C0.199,-0.51 0.202,-0.506 0.204,-0.503L0.297,-0.375L0.389,-0.502C0.392,-0.505 0.395,-0.509 0.4,-0.514C0.404,-0.518 0.41,-0.52 0.419,-0.52L0.536,-0.52C0.542,-0.52 0.547,-0.518 0.552,-0.514C0.556,-0.509 0.558,-0.504 0.558,-0.498C0.558,-0.495 0.558,-0.493 0.557,-0.49C0.556,-0.487 0.555,-0.485 0.553,-0.482L0.397,-0.267L0.567,-0.038C0.569,-0.035 0.57,-0.033 0.571,-0.03C0.572,-0.027 0.572,-0.025 0.572,-0.023C0.572,-0.016 0.57,-0.011 0.566,-0.007C0.561,-0.002 0.556,-0 0.55,-0L0.422,-0C0.414,-0 0.408,-0.002 0.404,-0.006C0.4,-0.009 0.397,-0.013 0.394,-0.016L0.293,-0.153L0.191,-0.016C0.188,-0.013 0.185,-0.01 0.181,-0.006C0.177,-0.002 0.171,-0 0.163,-0L0.038,-0Z" style="fill:rgb(255,67,67);fill-rule:nonzero;"/>
            </g>
        </g>
        <g transform="matrix(1.31909,0,0,1.31909,-200.804,164.799)">
            <g transform="matrix(42.8389,0,0,42.8389,1357.05,586.472)">
                <path d="M0.067,-0C0.06,-0 0.054,-0.003 0.049,-0.008C0.044,-0.012 0.041,-0.018 0.041,-0.025L0.041,-0.096C0.041,-0.101 0.042,-0.108 0.045,-0.118C0.048,-0.127 0.055,-0.136 0.066,-0.145L0.17,-0.247C0.223,-0.288 0.267,-0.322 0.302,-0.351C0.336,-0.379 0.361,-0.404 0.378,-0.426C0.395,-0.448 0.403,-0.469 0.403,-0.488C0.403,-0.511 0.397,-0.53 0.386,-0.545C0.374,-0.56 0.354,-0.567 0.325,-0.567C0.306,-0.567 0.29,-0.563 0.277,-0.555C0.264,-0.546 0.255,-0.535 0.248,-0.522C0.241,-0.509 0.236,-0.495 0.233,-0.481C0.23,-0.472 0.226,-0.466 0.22,-0.463C0.213,-0.46 0.206,-0.458 0.199,-0.458L0.074,-0.458C0.068,-0.458 0.063,-0.46 0.059,-0.464C0.055,-0.468 0.053,-0.473 0.053,-0.479C0.054,-0.511 0.061,-0.541 0.074,-0.57C0.087,-0.598 0.105,-0.623 0.129,-0.644C0.152,-0.665 0.181,-0.682 0.214,-0.695C0.247,-0.707 0.284,-0.713 0.325,-0.713C0.382,-0.713 0.43,-0.704 0.47,-0.686C0.509,-0.667 0.539,-0.642 0.56,-0.61C0.581,-0.577 0.591,-0.539 0.591,-0.496C0.591,-0.463 0.584,-0.433 0.57,-0.405C0.555,-0.376 0.535,-0.349 0.509,-0.324C0.482,-0.298 0.451,-0.271 0.415,-0.244L0.323,-0.151L0.58,-0.151C0.587,-0.151 0.594,-0.149 0.599,-0.144C0.604,-0.139 0.606,-0.133 0.606,-0.126L0.606,-0.025C0.606,-0.018 0.604,-0.012 0.599,-0.008C0.594,-0.003 0.587,-0 0.58,-0L0.067,-0Z" style="fill:rgb(255,139,67);fill-rule:nonzero;"/>
            </g>
            <g transform="matrix(42.8389,0,0,42.8389,1384.9,586.472)">
                <path d="M0.277,-0C0.27,-0 0.265,-0.003 0.26,-0.008C0.255,-0.012 0.252,-0.018 0.252,-0.025L0.252,-0.501L0.115,-0.396C0.109,-0.391 0.103,-0.39 0.097,-0.391C0.09,-0.392 0.085,-0.396 0.08,-0.402L0.021,-0.479C0.017,-0.485 0.016,-0.492 0.017,-0.499C0.018,-0.505 0.021,-0.511 0.028,-0.515L0.258,-0.693C0.262,-0.696 0.266,-0.698 0.27,-0.699C0.273,-0.7 0.277,-0.7 0.282,-0.7L0.407,-0.7C0.414,-0.7 0.42,-0.698 0.425,-0.693C0.43,-0.688 0.432,-0.682 0.432,-0.675L0.432,-0.025C0.432,-0.018 0.43,-0.012 0.425,-0.008C0.42,-0.003 0.414,-0 0.407,-0L0.277,-0Z" style="fill:rgb(255,139,67);fill-rule:nonzero;"/>
            </g>
            <g transform="matrix(42.8389,0,0,42.8389,1406.19,586.472)">
                <path d="M0.331,0.01C0.272,0.01 0.22,-0.001 0.175,-0.022C0.13,-0.043 0.095,-0.073 0.071,-0.111C0.046,-0.148 0.033,-0.191 0.033,-0.24C0.033,-0.261 0.036,-0.281 0.043,-0.302C0.049,-0.322 0.057,-0.341 0.066,-0.36C0.075,-0.378 0.085,-0.394 0.094,-0.409C0.103,-0.423 0.111,-0.434 0.117,-0.443L0.293,-0.68C0.296,-0.683 0.301,-0.688 0.306,-0.693C0.311,-0.698 0.319,-0.7 0.329,-0.7L0.462,-0.7C0.468,-0.7 0.473,-0.698 0.477,-0.694C0.481,-0.689 0.483,-0.684 0.483,-0.678C0.483,-0.675 0.483,-0.673 0.482,-0.671C0.481,-0.668 0.48,-0.666 0.479,-0.665L0.344,-0.481C0.348,-0.482 0.353,-0.483 0.359,-0.484L0.374,-0.484C0.404,-0.483 0.434,-0.476 0.463,-0.464C0.492,-0.452 0.519,-0.436 0.543,-0.415C0.567,-0.394 0.586,-0.37 0.601,-0.341C0.615,-0.312 0.622,-0.279 0.622,-0.244C0.622,-0.197 0.61,-0.155 0.586,-0.117C0.562,-0.078 0.528,-0.048 0.485,-0.025C0.441,-0.002 0.39,0.01 0.331,0.01ZM0.329,-0.134C0.348,-0.134 0.366,-0.138 0.383,-0.147C0.4,-0.155 0.413,-0.167 0.424,-0.183C0.434,-0.199 0.439,-0.218 0.439,-0.241C0.439,-0.264 0.434,-0.284 0.424,-0.3C0.414,-0.315 0.401,-0.327 0.384,-0.335C0.367,-0.343 0.349,-0.347 0.329,-0.347C0.309,-0.347 0.291,-0.343 0.274,-0.335C0.257,-0.327 0.243,-0.315 0.233,-0.3C0.223,-0.284 0.218,-0.264 0.218,-0.241C0.218,-0.218 0.223,-0.199 0.234,-0.183C0.244,-0.167 0.257,-0.155 0.274,-0.147C0.291,-0.138 0.309,-0.134 0.329,-0.134Z" style="fill:rgb(255,139,67);fill-rule:nonzero;"/>
            </g>
            <g transform="matrix(42.8389,0,0,42.8389,1434.08,586.472)">
                <path d="M0.084,0.19C0.077,0.19 0.071,0.188 0.066,0.183C0.061,0.178 0.059,0.172 0.059,0.165L0.059,-0.495C0.059,-0.502 0.061,-0.508 0.066,-0.513C0.071,-0.518 0.077,-0.52 0.084,-0.52L0.197,-0.52C0.204,-0.52 0.21,-0.518 0.215,-0.513C0.22,-0.508 0.222,-0.502 0.222,-0.495L0.222,-0.459C0.238,-0.479 0.259,-0.496 0.284,-0.51C0.309,-0.523 0.34,-0.53 0.377,-0.53C0.41,-0.53 0.44,-0.525 0.465,-0.515C0.49,-0.504 0.512,-0.489 0.531,-0.469C0.549,-0.449 0.563,-0.425 0.573,-0.396C0.583,-0.367 0.589,-0.334 0.59,-0.297C0.591,-0.284 0.591,-0.271 0.591,-0.26C0.591,-0.249 0.591,-0.236 0.59,-0.223C0.589,-0.187 0.583,-0.155 0.573,-0.126C0.563,-0.097 0.549,-0.073 0.531,-0.053C0.513,-0.033 0.491,-0.017 0.466,-0.007C0.44,0.005 0.41,0.01 0.377,0.01C0.344,0.01 0.316,0.004 0.292,-0.008C0.267,-0.019 0.247,-0.036 0.231,-0.057L0.231,0.165C0.231,0.172 0.229,0.178 0.224,0.183C0.219,0.188 0.213,0.19 0.206,0.19L0.084,0.19ZM0.323,-0.124C0.346,-0.124 0.363,-0.129 0.376,-0.138C0.389,-0.147 0.398,-0.16 0.404,-0.176C0.409,-0.192 0.413,-0.21 0.414,-0.229C0.415,-0.25 0.415,-0.27 0.414,-0.291C0.413,-0.31 0.409,-0.328 0.404,-0.344C0.398,-0.36 0.389,-0.373 0.376,-0.382C0.363,-0.391 0.346,-0.396 0.323,-0.396C0.302,-0.396 0.284,-0.391 0.271,-0.382C0.258,-0.372 0.248,-0.359 0.242,-0.344C0.236,-0.329 0.232,-0.312 0.231,-0.294C0.23,-0.281 0.23,-0.269 0.23,-0.257C0.23,-0.245 0.23,-0.232 0.231,-0.219C0.232,-0.202 0.235,-0.187 0.242,-0.173C0.249,-0.158 0.259,-0.147 0.272,-0.138C0.285,-0.129 0.302,-0.124 0.323,-0.124Z" style="fill:rgb(255,139,67);fill-rule:nonzero;"/>
            </g>
            <g transform="matrix(42.8389,0,0,42.8389,1460.34,586.472)">
                <path d="M0.038,-0C0.032,-0 0.027,-0.002 0.023,-0.007C0.018,-0.011 0.016,-0.016 0.016,-0.023C0.016,-0.024 0.016,-0.027 0.017,-0.03C0.018,-0.033 0.019,-0.035 0.021,-0.038L0.188,-0.267L0.036,-0.482C0.034,-0.485 0.033,-0.487 0.032,-0.49C0.031,-0.493 0.03,-0.495 0.03,-0.498C0.03,-0.504 0.032,-0.509 0.037,-0.514C0.042,-0.518 0.047,-0.52 0.053,-0.52L0.175,-0.52C0.184,-0.52 0.19,-0.518 0.195,-0.514C0.199,-0.51 0.202,-0.506 0.204,-0.503L0.297,-0.375L0.389,-0.502C0.392,-0.505 0.395,-0.509 0.4,-0.514C0.404,-0.518 0.41,-0.52 0.419,-0.52L0.536,-0.52C0.542,-0.52 0.547,-0.518 0.552,-0.514C0.556,-0.509 0.558,-0.504 0.558,-0.498C0.558,-0.495 0.558,-0.493 0.557,-0.49C0.556,-0.487 0.555,-0.485 0.553,-0.482L0.397,-0.267L0.567,-0.038C0.569,-0.035 0.57,-0.033 0.571,-0.03C0.572,-0.027 0.572,-0.025 0.572,-0.023C0.572,-0.016 0.57,-0.011 0.566,-0.007C0.561,-0.002 0.556,-0 0.55,-0L0.422,-0C0.414,-0 0.408,-0.002 0.404,-0.006C0.4,-0.009 0.397,-0.013 0.394,-0.016L0.293,-0.153L0.191,-0.016C0.188,-0.013 0.185,-0.01 0.181,-0.006C0.177,-0.002 0.171,-0 0.163,-0L0.038,-0Z" style="fill:rgb(255,139,67);fill-rule:nonzero;"/>
            </g>
        </g>
        <g transform="matrix(4.71836e-17,0.770566,-0.770566,4.71836e-17,1880.42,-302.58)">
            <g transform="matrix(42.8389,0,0,42.8389,1357.05,586.472)">
                <path d="M0.095,-0C0.088,-0 0.083,-0.003 0.078,-0.008C0.073,-0.012 0.07,-0.018 0.07,-0.025L0.07,-0.675C0.07,-0.682 0.073,-0.688 0.078,-0.693C0.083,-0.698 0.088,-0.7 0.095,-0.7L0.203,-0.7C0.214,-0.7 0.223,-0.697 0.228,-0.692C0.233,-0.686 0.237,-0.681 0.238,-0.678L0.414,-0.363L0.59,-0.678C0.592,-0.681 0.596,-0.686 0.601,-0.692C0.606,-0.697 0.614,-0.7 0.625,-0.7L0.732,-0.7C0.739,-0.7 0.745,-0.698 0.751,-0.693C0.756,-0.688 0.758,-0.682 0.758,-0.675L0.758,-0.025C0.758,-0.018 0.756,-0.012 0.751,-0.008C0.745,-0.003 0.739,-0 0.732,-0L0.613,-0C0.606,-0 0.6,-0.003 0.595,-0.008C0.59,-0.012 0.587,-0.018 0.587,-0.025L0.587,-0.4L0.475,-0.191C0.472,-0.185 0.467,-0.18 0.462,-0.175C0.457,-0.17 0.449,-0.168 0.44,-0.168L0.388,-0.168C0.379,-0.168 0.371,-0.17 0.366,-0.175C0.361,-0.18 0.356,-0.185 0.353,-0.191L0.24,-0.4L0.24,-0.025C0.24,-0.018 0.238,-0.012 0.233,-0.008C0.228,-0.003 0.222,-0 0.215,-0L0.095,-0Z" style="fill:rgb(159,45,54);fill-rule:nonzero;"/>
            </g>
            <g transform="matrix(42.8389,0,0,42.8389,1392.52,586.472)">
                <path d="M0.03,-0C0.025,-0 0.02,-0.002 0.016,-0.007C0.011,-0.011 0.009,-0.016 0.009,-0.021C0.009,-0.024 0.009,-0.027 0.01,-0.03L0.245,-0.672C0.247,-0.679 0.251,-0.686 0.258,-0.692C0.264,-0.697 0.273,-0.7 0.284,-0.7L0.432,-0.7C0.443,-0.7 0.452,-0.697 0.459,-0.692C0.465,-0.686 0.469,-0.679 0.471,-0.672L0.705,-0.03C0.706,-0.027 0.707,-0.024 0.707,-0.021C0.707,-0.016 0.705,-0.011 0.701,-0.007C0.696,-0.002 0.691,-0 0.685,-0L0.562,-0C0.552,-0 0.545,-0.003 0.54,-0.008C0.535,-0.012 0.531,-0.017 0.53,-0.021L0.491,-0.123L0.224,-0.123L0.186,-0.021C0.185,-0.017 0.182,-0.012 0.177,-0.008C0.172,-0.003 0.164,-0 0.153,-0L0.03,-0ZM0.265,-0.267L0.451,-0.267L0.358,-0.531L0.265,-0.267Z" style="fill:rgb(159,45,54);fill-rule:nonzero;"/>
            </g>
            <g transform="matrix(42.8389,0,0,42.8389,1423.2,586.472)">
                <path d="M0.033,-0C0.027,-0 0.022,-0.002 0.018,-0.007C0.013,-0.011 0.011,-0.016 0.011,-0.021C0.011,-0.023 0.011,-0.025 0.012,-0.027C0.013,-0.029 0.014,-0.031 0.015,-0.033L0.233,-0.357L0.031,-0.667C0.029,-0.671 0.028,-0.675 0.028,-0.679C0.028,-0.684 0.03,-0.689 0.034,-0.694C0.038,-0.698 0.043,-0.7 0.049,-0.7L0.194,-0.7C0.204,-0.7 0.212,-0.698 0.217,-0.693C0.222,-0.688 0.226,-0.683 0.229,-0.679L0.348,-0.498L0.469,-0.679C0.472,-0.683 0.476,-0.688 0.481,-0.693C0.486,-0.698 0.494,-0.7 0.504,-0.7L0.642,-0.7C0.647,-0.7 0.652,-0.698 0.657,-0.694C0.661,-0.689 0.663,-0.684 0.663,-0.679C0.663,-0.674 0.662,-0.67 0.659,-0.667L0.456,-0.358L0.676,-0.033C0.677,-0.031 0.678,-0.029 0.679,-0.027L0.679,-0.021C0.679,-0.016 0.677,-0.011 0.673,-0.007C0.669,-0.002 0.664,-0 0.658,-0L0.509,-0C0.499,-0 0.491,-0.003 0.486,-0.008C0.48,-0.012 0.476,-0.017 0.474,-0.02L0.342,-0.212L0.211,-0.02C0.209,-0.017 0.205,-0.012 0.2,-0.008C0.195,-0.003 0.187,-0 0.177,-0L0.033,-0Z" style="fill:rgb(159,45,54);fill-rule:nonzero;"/>
            </g>
            <g transform="matrix(42.8389,0,0,42.8389,1461.88,586.472)">
                <path d="M0.312,0.01C0.274,0.01 0.238,0.005 0.204,-0.005C0.169,-0.014 0.139,-0.029 0.112,-0.048C0.085,-0.067 0.064,-0.091 0.049,-0.12C0.033,-0.149 0.024,-0.182 0.023,-0.22C0.023,-0.226 0.025,-0.231 0.029,-0.236C0.033,-0.24 0.038,-0.242 0.045,-0.242L0.18,-0.242C0.189,-0.242 0.197,-0.24 0.202,-0.235C0.206,-0.23 0.211,-0.223 0.214,-0.214C0.218,-0.195 0.225,-0.18 0.234,-0.169C0.243,-0.157 0.254,-0.148 0.269,-0.143C0.283,-0.137 0.299,-0.134 0.317,-0.134C0.35,-0.134 0.376,-0.145 0.394,-0.167C0.412,-0.188 0.421,-0.22 0.421,-0.262L0.421,-0.551L0.097,-0.551C0.09,-0.551 0.085,-0.553 0.08,-0.558C0.075,-0.563 0.072,-0.569 0.072,-0.576L0.072,-0.675C0.072,-0.682 0.075,-0.688 0.08,-0.693C0.085,-0.698 0.09,-0.7 0.097,-0.7L0.581,-0.7C0.588,-0.7 0.595,-0.698 0.6,-0.693C0.604,-0.688 0.607,-0.682 0.607,-0.675L0.607,-0.257C0.607,-0.199 0.595,-0.15 0.57,-0.111C0.545,-0.071 0.51,-0.041 0.466,-0.021C0.421,-0 0.37,0.01 0.312,0.01Z" style="fill:rgb(159,45,54);fill-rule:nonzero;"/>
            </g>
            <g transform="matrix(42.8389,0,0,42.8389,1490.62,586.472)">
                <path d="M0.364,0.01C0.303,0.01 0.251,0 0.206,-0.02C0.161,-0.039 0.126,-0.07 0.101,-0.111C0.076,-0.152 0.064,-0.204 0.064,-0.267L0.064,-0.675C0.064,-0.682 0.066,-0.688 0.071,-0.693C0.076,-0.698 0.082,-0.7 0.089,-0.7L0.218,-0.7C0.225,-0.7 0.232,-0.698 0.237,-0.693C0.242,-0.688 0.244,-0.682 0.244,-0.675L0.244,-0.268C0.244,-0.225 0.254,-0.192 0.275,-0.171C0.296,-0.149 0.325,-0.138 0.363,-0.138C0.4,-0.138 0.43,-0.149 0.451,-0.171C0.471,-0.192 0.482,-0.225 0.482,-0.268L0.482,-0.675C0.482,-0.682 0.485,-0.688 0.49,-0.693C0.495,-0.698 0.5,-0.7 0.507,-0.7L0.637,-0.7C0.644,-0.7 0.65,-0.698 0.655,-0.693C0.66,-0.688 0.662,-0.682 0.662,-0.675L0.662,-0.267C0.662,-0.204 0.65,-0.152 0.625,-0.111C0.6,-0.07 0.566,-0.039 0.521,-0.02C0.476,0 0.424,0.01 0.364,0.01Z" style="fill:rgb(159,45,54);fill-rule:nonzero;"/>
            </g>
            <g transform="matrix(42.8389,0,0,42.8389,1521.68,586.472)">
                <path d="M0.095,-0C0.088,-0 0.083,-0.003 0.078,-0.008C0.073,-0.012 0.07,-0.018 0.07,-0.025L0.07,-0.675C0.07,-0.682 0.073,-0.688 0.078,-0.693C0.083,-0.698 0.088,-0.7 0.095,-0.7L0.203,-0.7C0.214,-0.7 0.223,-0.697 0.228,-0.692C0.233,-0.686 0.237,-0.681 0.238,-0.678L0.414,-0.363L0.59,-0.678C0.592,-0.681 0.596,-0.686 0.601,-0.692C0.606,-0.697 0.614,-0.7 0.625,-0.7L0.732,-0.7C0.739,-0.7 0.745,-0.698 0.751,-0.693C0.756,-0.688 0.758,-0.682 0.758,-0.675L0.758,-0.025C0.758,-0.018 0.756,-0.012 0.751,-0.008C0.745,-0.003 0.739,-0 0.732,-0L0.613,-0C0.606,-0 0.6,-0.003 0.595,-0.008C0.59,-0.012 0.587,-0.018 0.587,-0.025L0.587,-0.4L0.475,-0.191C0.472,-0.185 0.467,-0.18 0.462,-0.175C0.457,-0.17 0.449,-0.168 0.44,-0.168L0.388,-0.168C0.379,-0.168 0.371,-0.17 0.366,-0.175C0.361,-0.18 0.356,-0.185 0.353,-0.191L0.24,-0.4L0.24,-0.025C0.24,-0.018 0.238,-0.012 0.233,-0.008C0.228,-0.003 0.222,-0 0.215,-0L0.095,-0Z" style="fill:rgb(159,45,54);fill-rule:nonzero;"/>
            </g>
            <g transform="matrix(42.8389,0,0,42.8389,1557.15,586.472)">
                <path d="M0.095,-0C0.088,-0 0.082,-0.003 0.077,-0.008C0.072,-0.012 0.07,-0.018 0.07,-0.025L0.07,-0.675C0.07,-0.682 0.072,-0.688 0.077,-0.693C0.082,-0.698 0.088,-0.7 0.095,-0.7L0.375,-0.7C0.43,-0.7 0.478,-0.692 0.52,-0.675C0.56,-0.658 0.592,-0.632 0.616,-0.598C0.639,-0.564 0.65,-0.521 0.65,-0.469C0.65,-0.418 0.639,-0.375 0.616,-0.342C0.592,-0.309 0.56,-0.284 0.52,-0.268C0.478,-0.252 0.43,-0.244 0.375,-0.244L0.256,-0.244L0.256,-0.025C0.256,-0.018 0.254,-0.012 0.249,-0.008C0.243,-0.003 0.237,-0 0.23,-0L0.095,-0ZM0.253,-0.382L0.37,-0.382C0.399,-0.382 0.422,-0.389 0.439,-0.404C0.456,-0.419 0.464,-0.441 0.464,-0.471C0.464,-0.496 0.457,-0.518 0.442,-0.535C0.427,-0.552 0.403,-0.561 0.37,-0.561L0.253,-0.561L0.253,-0.382Z" style="fill:rgb(159,45,54);fill-rule:nonzero;"/>
            </g>
            <g transform="matrix(42.8389,0,0,42.8389,1594.34,586.472)">
                <path d="M0.095,-0C0.088,-0 0.082,-0.002 0.077,-0.007C0.072,-0.012 0.07,-0.018 0.07,-0.025L0.07,-0.675C0.07,-0.682 0.072,-0.688 0.077,-0.693C0.082,-0.698 0.088,-0.7 0.095,-0.7L0.224,-0.7C0.231,-0.7 0.238,-0.698 0.243,-0.693C0.247,-0.688 0.25,-0.682 0.25,-0.675L0.25,-0.434L0.496,-0.434L0.496,-0.675C0.496,-0.682 0.498,-0.688 0.503,-0.693C0.508,-0.698 0.514,-0.7 0.521,-0.7L0.65,-0.7C0.657,-0.7 0.663,-0.698 0.668,-0.693C0.673,-0.688 0.675,-0.682 0.675,-0.675L0.675,-0.025C0.675,-0.018 0.673,-0.012 0.668,-0.008C0.663,-0.003 0.657,-0 0.65,-0L0.521,-0C0.514,-0 0.508,-0.003 0.503,-0.008C0.498,-0.012 0.496,-0.018 0.496,-0.025L0.496,-0.274L0.25,-0.274L0.25,-0.025C0.25,-0.018 0.247,-0.012 0.243,-0.008C0.238,-0.003 0.231,-0 0.224,-0L0.095,-0Z" style="fill:rgb(159,45,54);fill-rule:nonzero;"/>
            </g>
            <g transform="matrix(42.8389,0,0,42.8389,1626.25,586.472)">
                <path d="M0.095,-0C0.088,-0 0.082,-0.003 0.077,-0.008C0.072,-0.012 0.07,-0.018 0.07,-0.025L0.07,-0.675C0.07,-0.682 0.072,-0.688 0.077,-0.693C0.082,-0.698 0.088,-0.7 0.095,-0.7L0.562,-0.7C0.569,-0.7 0.575,-0.698 0.58,-0.693C0.585,-0.688 0.587,-0.682 0.587,-0.675L0.587,-0.581C0.587,-0.574 0.585,-0.568 0.58,-0.563C0.575,-0.558 0.569,-0.556 0.562,-0.556L0.243,-0.556L0.243,-0.421L0.54,-0.421C0.547,-0.421 0.553,-0.419 0.558,-0.414C0.563,-0.409 0.565,-0.402 0.565,-0.395L0.565,-0.308C0.565,-0.301 0.563,-0.296 0.558,-0.291C0.553,-0.286 0.547,-0.283 0.54,-0.283L0.243,-0.283L0.243,-0.144L0.57,-0.144C0.577,-0.144 0.583,-0.142 0.588,-0.137C0.593,-0.132 0.595,-0.126 0.595,-0.119L0.595,-0.025C0.595,-0.018 0.593,-0.012 0.588,-0.008C0.583,-0.003 0.577,-0 0.57,-0L0.095,-0Z" style="fill:rgb(159,45,54);fill-rule:nonzero;"/>
            </g>
            <g transform="matrix(42.8389,0,0,42.8389,1653.63,586.472)">
                <path d="M0.095,-0C0.088,-0 0.082,-0.003 0.077,-0.008C0.072,-0.012 0.07,-0.018 0.07,-0.025L0.07,-0.675C0.07,-0.682 0.072,-0.688 0.077,-0.693C0.082,-0.698 0.088,-0.7 0.095,-0.7L0.229,-0.7C0.236,-0.7 0.243,-0.698 0.248,-0.693C0.253,-0.688 0.255,-0.682 0.255,-0.675L0.255,-0.025C0.255,-0.018 0.253,-0.012 0.248,-0.008C0.243,-0.003 0.236,-0 0.229,-0L0.095,-0Z" style="fill:rgb(159,45,54);fill-rule:nonzero;"/>
            </g>
            <g transform="matrix(42.8389,0,0,42.8389,1667.51,586.472)">
                <path d="M0.359,0.01C0.296,0.01 0.241,-0.001 0.196,-0.022C0.15,-0.043 0.115,-0.073 0.09,-0.114C0.065,-0.154 0.051,-0.203 0.048,-0.261C0.047,-0.29 0.047,-0.32 0.047,-0.353C0.047,-0.385 0.047,-0.416 0.048,-0.445C0.051,-0.502 0.065,-0.55 0.09,-0.589C0.115,-0.628 0.151,-0.658 0.197,-0.679C0.243,-0.7 0.297,-0.71 0.359,-0.71C0.409,-0.71 0.453,-0.704 0.492,-0.692C0.531,-0.679 0.563,-0.663 0.59,-0.642C0.616,-0.621 0.636,-0.599 0.65,-0.574C0.664,-0.549 0.671,-0.525 0.672,-0.501C0.672,-0.495 0.67,-0.49 0.666,-0.486C0.661,-0.482 0.656,-0.48 0.65,-0.48L0.504,-0.48C0.497,-0.48 0.491,-0.481 0.488,-0.484C0.484,-0.486 0.481,-0.489 0.478,-0.494C0.473,-0.504 0.467,-0.515 0.458,-0.526C0.448,-0.537 0.436,-0.546 0.421,-0.554C0.405,-0.562 0.384,-0.566 0.359,-0.566C0.322,-0.566 0.292,-0.556 0.27,-0.536C0.248,-0.516 0.236,-0.484 0.234,-0.44C0.232,-0.383 0.232,-0.325 0.234,-0.266C0.236,-0.219 0.248,-0.186 0.271,-0.165C0.294,-0.144 0.324,-0.134 0.362,-0.134C0.387,-0.134 0.409,-0.138 0.429,-0.147C0.448,-0.156 0.464,-0.169 0.475,-0.188C0.486,-0.206 0.492,-0.229 0.492,-0.258L0.492,-0.277L0.398,-0.277C0.391,-0.277 0.385,-0.28 0.38,-0.285C0.375,-0.29 0.373,-0.296 0.373,-0.303L0.373,-0.377C0.373,-0.384 0.375,-0.391 0.38,-0.396C0.385,-0.401 0.391,-0.403 0.398,-0.403L0.65,-0.403C0.657,-0.403 0.663,-0.401 0.668,-0.396C0.673,-0.391 0.675,-0.384 0.675,-0.377L0.675,-0.263C0.675,-0.206 0.662,-0.157 0.636,-0.116C0.61,-0.075 0.573,-0.044 0.526,-0.023C0.478,-0.001 0.422,0.01 0.359,0.01Z" style="fill:rgb(159,45,54);fill-rule:nonzero;"/>
            </g>
            <g transform="matrix(42.8389,0,0,42.8389,1698.35,586.472)">
                <path d="M0.095,-0C0.088,-0 0.082,-0.002 0.077,-0.007C0.072,-0.012 0.07,-0.018 0.07,-0.025L0.07,-0.675C0.07,-0.682 0.072,-0.688 0.077,-0.693C0.082,-0.698 0.088,-0.7 0.095,-0.7L0.224,-0.7C0.231,-0.7 0.238,-0.698 0.243,-0.693C0.247,-0.688 0.25,-0.682 0.25,-0.675L0.25,-0.434L0.496,-0.434L0.496,-0.675C0.496,-0.682 0.498,-0.688 0.503,-0.693C0.508,-0.698 0.514,-0.7 0.521,-0.7L0.65,-0.7C0.657,-0.7 0.663,-0.698 0.668,-0.693C0.673,-0.688 0.675,-0.682 0.675,-0.675L0.675,-0.025C0.675,-0.018 0.673,-0.012 0.668,-0.008C0.663,-0.003 0.657,-0 0.65,-0L0.521,-0C0.514,-0 0.508,-0.003 0.503,-0.008C0.498,-0.012 0.496,-0.018 0.496,-0.025L0.496,-0.274L0.25,-0.274L0.25,-0.025C0.25,-0.018 0.247,-0.012 0.243,-0.008C0.238,-0.003 0.231,-0 0.224,-0L0.095,-0Z" style="fill:rgb(159,45,54);fill-rule:nonzero;"/>
            </g>
            <g transform="matrix(42.8389,0,0,42.8389,1730.26,586.472)">
                <path d="M0.249,-0C0.242,-0 0.236,-0.003 0.231,-0.008C0.226,-0.012 0.224,-0.018 0.224,-0.025L0.224,-0.543L0.046,-0.543C0.039,-0.543 0.033,-0.546 0.028,-0.551C0.023,-0.556 0.021,-0.561 0.021,-0.568L0.021,-0.675C0.021,-0.682 0.023,-0.688 0.028,-0.693C0.033,-0.698 0.039,-0.7 0.046,-0.7L0.584,-0.7C0.591,-0.7 0.597,-0.698 0.602,-0.693C0.607,-0.688 0.609,-0.682 0.609,-0.675L0.609,-0.568C0.609,-0.561 0.607,-0.556 0.602,-0.551C0.597,-0.546 0.591,-0.543 0.584,-0.543L0.406,-0.543L0.406,-0.025C0.406,-0.018 0.404,-0.012 0.399,-0.008C0.394,-0.003 0.388,-0 0.381,-0L0.249,-0Z" style="fill:rgb(159,45,54);fill-rule:nonzero;"/>
            </g>
        </g>
        <g transform="matrix(4.76803e-17,0.578849,-0.578849,4.76803e-17,1898.8,120.796)">
            <g transform="matrix(42.8389,0,0,42.8389,1357.05,586.472)">
                <path d="M0.357,0.01C0.294,0.01 0.24,-0 0.195,-0.021C0.15,-0.042 0.115,-0.072 0.09,-0.112C0.065,-0.152 0.051,-0.202 0.048,-0.261C0.047,-0.288 0.047,-0.318 0.047,-0.349C0.047,-0.38 0.047,-0.41 0.048,-0.439C0.051,-0.497 0.065,-0.546 0.09,-0.587C0.115,-0.628 0.151,-0.658 0.196,-0.679C0.241,-0.7 0.295,-0.71 0.357,-0.71C0.401,-0.71 0.442,-0.705 0.479,-0.694C0.516,-0.683 0.549,-0.667 0.577,-0.646C0.605,-0.624 0.627,-0.599 0.643,-0.57C0.658,-0.54 0.666,-0.506 0.667,-0.469C0.668,-0.463 0.666,-0.458 0.662,-0.454C0.657,-0.45 0.652,-0.448 0.646,-0.448L0.511,-0.448C0.502,-0.448 0.496,-0.45 0.491,-0.454C0.486,-0.457 0.482,-0.464 0.479,-0.474C0.47,-0.509 0.455,-0.534 0.434,-0.547C0.413,-0.56 0.387,-0.566 0.356,-0.566C0.319,-0.566 0.29,-0.556 0.269,-0.536C0.248,-0.515 0.236,-0.481 0.234,-0.434C0.232,-0.379 0.232,-0.323 0.234,-0.266C0.236,-0.219 0.248,-0.185 0.269,-0.165C0.29,-0.144 0.319,-0.134 0.356,-0.134C0.387,-0.134 0.413,-0.141 0.434,-0.154C0.455,-0.167 0.47,-0.191 0.479,-0.226C0.482,-0.236 0.486,-0.243 0.491,-0.247C0.496,-0.25 0.502,-0.252 0.511,-0.252L0.646,-0.252C0.652,-0.252 0.657,-0.25 0.662,-0.246C0.666,-0.242 0.668,-0.237 0.667,-0.231C0.666,-0.194 0.658,-0.16 0.643,-0.131C0.627,-0.101 0.605,-0.076 0.577,-0.055C0.549,-0.034 0.516,-0.017 0.479,-0.007C0.442,0.005 0.401,0.01 0.357,0.01Z" style="fill:rgb(178,64,31);fill-rule:nonzero;"/>
            </g>
            <g transform="matrix(42.8389,0,0,42.8389,1387.13,586.472)">
                <path d="M0.095,-0C0.088,-0 0.082,-0.002 0.077,-0.007C0.072,-0.012 0.07,-0.018 0.07,-0.025L0.07,-0.675C0.07,-0.682 0.072,-0.688 0.077,-0.693C0.082,-0.698 0.088,-0.7 0.095,-0.7L0.224,-0.7C0.231,-0.7 0.238,-0.698 0.243,-0.693C0.247,-0.688 0.25,-0.682 0.25,-0.675L0.25,-0.434L0.496,-0.434L0.496,-0.675C0.496,-0.682 0.498,-0.688 0.503,-0.693C0.508,-0.698 0.514,-0.7 0.521,-0.7L0.65,-0.7C0.657,-0.7 0.663,-0.698 0.668,-0.693C0.673,-0.688 0.675,-0.682 0.675,-0.675L0.675,-0.025C0.675,-0.018 0.673,-0.012 0.668,-0.008C0.663,-0.003 0.657,-0 0.65,-0L0.521,-0C0.514,-0 0.508,-0.003 0.503,-0.008C0.498,-0.012 0.496,-0.018 0.496,-0.025L0.496,-0.274L0.25,-0.274L0.25,-0.025C0.25,-0.018 0.247,-0.012 0.243,-0.008C0.238,-0.003 0.231,-0 0.224,-0L0.095,-0Z" style="fill:rgb(178,64,31);fill-rule:nonzero;"/>
            </g>
            <g transform="matrix(42.8389,0,0,42.8389,1419.04,586.472)">
                <path d="M0.03,-0C0.025,-0 0.02,-0.002 0.016,-0.007C0.011,-0.011 0.009,-0.016 0.009,-0.021C0.009,-0.024 0.009,-0.027 0.01,-0.03L0.245,-0.672C0.247,-0.679 0.251,-0.686 0.258,-0.692C0.264,-0.697 0.273,-0.7 0.284,-0.7L0.432,-0.7C0.443,-0.7 0.452,-0.697 0.459,-0.692C0.465,-0.686 0.469,-0.679 0.471,-0.672L0.705,-0.03C0.706,-0.027 0.707,-0.024 0.707,-0.021C0.707,-0.016 0.705,-0.011 0.701,-0.007C0.696,-0.002 0.691,-0 0.685,-0L0.562,-0C0.552,-0 0.545,-0.003 0.54,-0.008C0.535,-0.012 0.531,-0.017 0.53,-0.021L0.491,-0.123L0.224,-0.123L0.186,-0.021C0.185,-0.017 0.182,-0.012 0.177,-0.008C0.172,-0.003 0.164,-0 0.153,-0L0.03,-0ZM0.265,-0.267L0.451,-0.267L0.358,-0.531L0.265,-0.267Z" style="fill:rgb(178,64,31);fill-rule:nonzero;"/>
            </g>
            <g transform="matrix(42.8389,0,0,42.8389,1449.71,586.472)">
                <path d="M0.095,-0C0.088,-0 0.082,-0.003 0.077,-0.008C0.072,-0.012 0.07,-0.018 0.07,-0.025L0.07,-0.675C0.07,-0.682 0.072,-0.688 0.077,-0.693C0.082,-0.698 0.088,-0.7 0.095,-0.7L0.367,-0.7C0.454,-0.7 0.522,-0.68 0.571,-0.641C0.62,-0.601 0.645,-0.545 0.645,-0.472C0.645,-0.425 0.634,-0.385 0.611,-0.352C0.588,-0.319 0.558,-0.295 0.521,-0.278L0.658,-0.032C0.66,-0.028 0.661,-0.024 0.661,-0.021C0.661,-0.016 0.659,-0.011 0.655,-0.007C0.65,-0.002 0.645,-0 0.64,-0L0.507,-0C0.494,-0 0.485,-0.003 0.479,-0.01C0.473,-0.016 0.469,-0.022 0.466,-0.027L0.352,-0.247L0.25,-0.247L0.25,-0.025C0.25,-0.018 0.247,-0.012 0.243,-0.008C0.238,-0.003 0.231,-0 0.224,-0L0.095,-0ZM0.25,-0.389L0.365,-0.389C0.396,-0.389 0.42,-0.397 0.436,-0.412C0.451,-0.427 0.459,-0.448 0.459,-0.474C0.459,-0.5 0.452,-0.521 0.437,-0.537C0.422,-0.553 0.398,-0.561 0.365,-0.561L0.25,-0.561L0.25,-0.389Z" style="fill:rgb(178,64,31);fill-rule:nonzero;"/>
            </g>
            <g transform="matrix(42.8389,0,0,42.8389,1479.31,586.472)">
                <path d="M0.03,-0C0.025,-0 0.02,-0.002 0.016,-0.007C0.011,-0.011 0.009,-0.016 0.009,-0.021C0.009,-0.024 0.009,-0.027 0.01,-0.03L0.245,-0.672C0.247,-0.679 0.251,-0.686 0.258,-0.692C0.264,-0.697 0.273,-0.7 0.284,-0.7L0.432,-0.7C0.443,-0.7 0.452,-0.697 0.459,-0.692C0.465,-0.686 0.469,-0.679 0.471,-0.672L0.705,-0.03C0.706,-0.027 0.707,-0.024 0.707,-0.021C0.707,-0.016 0.705,-0.011 0.701,-0.007C0.696,-0.002 0.691,-0 0.685,-0L0.562,-0C0.552,-0 0.545,-0.003 0.54,-0.008C0.535,-0.012 0.531,-0.017 0.53,-0.021L0.491,-0.123L0.224,-0.123L0.186,-0.021C0.185,-0.017 0.182,-0.012 0.177,-0.008C0.172,-0.003 0.164,-0 0.153,-0L0.03,-0ZM0.265,-0.267L0.451,-0.267L0.358,-0.531L0.265,-0.267Z" style="fill:rgb(178,64,31);fill-rule:nonzero;"/>
            </g>
            <g transform="matrix(42.8389,0,0,42.8389,1509.34,586.472)">
                <path d="M0.357,0.01C0.294,0.01 0.24,-0 0.195,-0.021C0.15,-0.042 0.115,-0.072 0.09,-0.112C0.065,-0.152 0.051,-0.202 0.048,-0.261C0.047,-0.288 0.047,-0.318 0.047,-0.349C0.047,-0.38 0.047,-0.41 0.048,-0.439C0.051,-0.497 0.065,-0.546 0.09,-0.587C0.115,-0.628 0.151,-0.658 0.196,-0.679C0.241,-0.7 0.295,-0.71 0.357,-0.71C0.401,-0.71 0.442,-0.705 0.479,-0.694C0.516,-0.683 0.549,-0.667 0.577,-0.646C0.605,-0.624 0.627,-0.599 0.643,-0.57C0.658,-0.54 0.666,-0.506 0.667,-0.469C0.668,-0.463 0.666,-0.458 0.662,-0.454C0.657,-0.45 0.652,-0.448 0.646,-0.448L0.511,-0.448C0.502,-0.448 0.496,-0.45 0.491,-0.454C0.486,-0.457 0.482,-0.464 0.479,-0.474C0.47,-0.509 0.455,-0.534 0.434,-0.547C0.413,-0.56 0.387,-0.566 0.356,-0.566C0.319,-0.566 0.29,-0.556 0.269,-0.536C0.248,-0.515 0.236,-0.481 0.234,-0.434C0.232,-0.379 0.232,-0.323 0.234,-0.266C0.236,-0.219 0.248,-0.185 0.269,-0.165C0.29,-0.144 0.319,-0.134 0.356,-0.134C0.387,-0.134 0.413,-0.141 0.434,-0.154C0.455,-0.167 0.47,-0.191 0.479,-0.226C0.482,-0.236 0.486,-0.243 0.491,-0.247C0.496,-0.25 0.502,-0.252 0.511,-0.252L0.646,-0.252C0.652,-0.252 0.657,-0.25 0.662,-0.246C0.666,-0.242 0.668,-0.237 0.667,-0.231C0.666,-0.194 0.658,-0.16 0.643,-0.131C0.627,-0.101 0.605,-0.076 0.577,-0.055C0.549,-0.034 0.516,-0.017 0.479,-0.007C0.442,0.005 0.401,0.01 0.357,0.01Z" style="fill:rgb(178,64,31);fill-rule:nonzero;"/>
            </g>
            <g transform="matrix(42.8389,0,0,42.8389,1539.42,586.472)">
                <path d="M0.249,-0C0.242,-0 0.236,-0.003 0.231,-0.008C0.226,-0.012 0.224,-0.018 0.224,-0.025L0.224,-0.543L0.046,-0.543C0.039,-0.543 0.033,-0.546 0.028,-0.551C0.023,-0.556 0.021,-0.561 0.021,-0.568L0.021,-0.675C0.021,-0.682 0.023,-0.688 0.028,-0.693C0.033,-0.698 0.039,-0.7 0.046,-0.7L0.584,-0.7C0.591,-0.7 0.597,-0.698 0.602,-0.693C0.607,-0.688 0.609,-0.682 0.609,-0.675L0.609,-0.568C0.609,-0.561 0.607,-0.556 0.602,-0.551C0.597,-0.546 0.591,-0.543 0.584,-0.543L0.406,-0.543L0.406,-0.025C0.406,-0.018 0.404,-0.012 0.399,-0.008C0.394,-0.003 0.388,-0 0.381,-0L0.249,-0Z" style="fill:rgb(178,64,31);fill-rule:nonzero;"/>
            </g>
            <g transform="matrix(42.8389,0,0,42.8389,1566.41,586.472)">
                <path d="M0.095,-0C0.088,-0 0.082,-0.003 0.077,-0.008C0.072,-0.012 0.07,-0.018 0.07,-0.025L0.07,-0.675C0.07,-0.682 0.072,-0.688 0.077,-0.693C0.082,-0.698 0.088,-0.7 0.095,-0.7L0.562,-0.7C0.569,-0.7 0.575,-0.698 0.58,-0.693C0.585,-0.688 0.587,-0.682 0.587,-0.675L0.587,-0.581C0.587,-0.574 0.585,-0.568 0.58,-0.563C0.575,-0.558 0.569,-0.556 0.562,-0.556L0.243,-0.556L0.243,-0.421L0.54,-0.421C0.547,-0.421 0.553,-0.419 0.558,-0.414C0.563,-0.409 0.565,-0.402 0.565,-0.395L0.565,-0.308C0.565,-0.301 0.563,-0.296 0.558,-0.291C0.553,-0.286 0.547,-0.283 0.54,-0.283L0.243,-0.283L0.243,-0.144L0.57,-0.144C0.577,-0.144 0.583,-0.142 0.588,-0.137C0.593,-0.132 0.595,-0.126 0.595,-0.119L0.595,-0.025C0.595,-0.018 0.593,-0.012 0.588,-0.008C0.583,-0.003 0.577,-0 0.57,-0L0.095,-0Z" style="fill:rgb(178,64,31);fill-rule:nonzero;"/>
            </g>
            <g transform="matrix(42.8389,0,0,42.8389,1593.78,586.472)">
                <path d="M0.095,-0C0.088,-0 0.082,-0.003 0.077,-0.008C0.072,-0.012 0.07,-0.018 0.07,-0.025L0.07,-0.675C0.07,-0.682 0.072,-0.688 0.077,-0.693C0.082,-0.698 0.088,-0.7 0.095,-0.7L0.367,-0.7C0.454,-0.7 0.522,-0.68 0.571,-0.641C0.62,-0.601 0.645,-0.545 0.645,-0.472C0.645,-0.425 0.634,-0.385 0.611,-0.352C0.588,-0.319 0.558,-0.295 0.521,-0.278L0.658,-0.032C0.66,-0.028 0.661,-0.024 0.661,-0.021C0.661,-0.016 0.659,-0.011 0.655,-0.007C0.65,-0.002 0.645,-0 0.64,-0L0.507,-0C0.494,-0 0.485,-0.003 0.479,-0.01C0.473,-0.016 0.469,-0.022 0.466,-0.027L0.352,-0.247L0.25,-0.247L0.25,-0.025C0.25,-0.018 0.247,-0.012 0.243,-0.008C0.238,-0.003 0.231,-0 0.224,-0L0.095,-0ZM0.25,-0.389L0.365,-0.389C0.396,-0.389 0.42,-0.397 0.436,-0.412C0.451,-0.427 0.459,-0.448 0.459,-0.474C0.459,-0.5 0.452,-0.521 0.437,-0.537C0.422,-0.553 0.398,-0.561 0.365,-0.561L0.25,-0.561L0.25,-0.389Z" style="fill:rgb(178,64,31);fill-rule:nonzero;"/>
            </g>
            <g transform="matrix(42.8389,0,0,42.8389,1357.05,629.311)">
                <path d="M0.095,-0C0.088,-0 0.082,-0.002 0.077,-0.007C0.072,-0.012 0.07,-0.018 0.07,-0.025L0.07,-0.675C0.07,-0.682 0.072,-0.688 0.077,-0.693C0.082,-0.698 0.088,-0.7 0.095,-0.7L0.224,-0.7C0.231,-0.7 0.238,-0.698 0.243,-0.693C0.247,-0.688 0.25,-0.682 0.25,-0.675L0.25,-0.434L0.496,-0.434L0.496,-0.675C0.496,-0.682 0.498,-0.688 0.503,-0.693C0.508,-0.698 0.514,-0.7 0.521,-0.7L0.65,-0.7C0.657,-0.7 0.663,-0.698 0.668,-0.693C0.673,-0.688 0.675,-0.682 0.675,-0.675L0.675,-0.025C0.675,-0.018 0.673,-0.012 0.668,-0.008C0.663,-0.003 0.657,-0 0.65,-0L0.521,-0C0.514,-0 0.508,-0.003 0.503,-0.008C0.498,-0.012 0.496,-0.018 0.496,-0.025L0.496,-0.274L0.25,-0.274L0.25,-0.025C0.25,-0.018 0.247,-0.012 0.243,-0.008C0.238,-0.003 0.231,-0 0.224,-0L0.095,-0Z" style="fill:rgb(178,64,31);fill-rule:nonzero;"/>
            </g>
            <g transform="matrix(42.8389,0,0,42.8389,1388.97,629.311)">
                <path d="M0.095,-0C0.088,-0 0.082,-0.003 0.077,-0.008C0.072,-0.012 0.07,-0.018 0.07,-0.025L0.07,-0.675C0.07,-0.682 0.072,-0.688 0.077,-0.693C0.082,-0.698 0.088,-0.7 0.095,-0.7L0.229,-0.7C0.236,-0.7 0.243,-0.698 0.248,-0.693C0.253,-0.688 0.255,-0.682 0.255,-0.675L0.255,-0.025C0.255,-0.018 0.253,-0.012 0.248,-0.008C0.243,-0.003 0.236,-0 0.229,-0L0.095,-0Z" style="fill:rgb(178,64,31);fill-rule:nonzero;"/>
            </g>
            <g transform="matrix(42.8389,0,0,42.8389,1402.85,629.311)">
                <path d="M0.249,-0C0.242,-0 0.236,-0.003 0.231,-0.008C0.226,-0.012 0.224,-0.018 0.224,-0.025L0.224,-0.543L0.046,-0.543C0.039,-0.543 0.033,-0.546 0.028,-0.551C0.023,-0.556 0.021,-0.561 0.021,-0.568L0.021,-0.675C0.021,-0.682 0.023,-0.688 0.028,-0.693C0.033,-0.698 0.039,-0.7 0.046,-0.7L0.584,-0.7C0.591,-0.7 0.597,-0.698 0.602,-0.693C0.607,-0.688 0.609,-0.682 0.609,-0.675L0.609,-0.568C0.609,-0.561 0.607,-0.556 0.602,-0.551C0.597,-0.546 0.591,-0.543 0.584,-0.543L0.406,-0.543L0.406,-0.025C0.406,-0.018 0.404,-0.012 0.399,-0.008C0.394,-0.003 0.388,-0 0.381,-0L0.249,-0Z" style="fill:rgb(178,64,31);fill-rule:nonzero;"/>
            </g>
            <g transform="matrix(42.8389,0,0,42.8389,1429.84,629.311)">
                <path d="M0.095,-0C0.088,-0 0.082,-0.003 0.077,-0.008C0.072,-0.012 0.07,-0.018 0.07,-0.025L0.07,-0.675C0.07,-0.682 0.072,-0.688 0.077,-0.693C0.082,-0.698 0.088,-0.7 0.095,-0.7L0.4,-0.7C0.457,-0.7 0.504,-0.692 0.541,-0.676C0.578,-0.66 0.605,-0.637 0.623,-0.608C0.64,-0.578 0.649,-0.543 0.649,-0.502C0.649,-0.478 0.645,-0.457 0.636,-0.439C0.627,-0.42 0.616,-0.405 0.603,-0.393C0.59,-0.381 0.577,-0.372 0.566,-0.367C0.591,-0.355 0.614,-0.335 0.634,-0.308C0.653,-0.281 0.663,-0.249 0.663,-0.212C0.663,-0.168 0.653,-0.13 0.634,-0.099C0.614,-0.067 0.585,-0.043 0.548,-0.026C0.51,-0.009 0.464,-0 0.409,-0L0.095,-0ZM0.25,-0.13L0.389,-0.13C0.418,-0.13 0.439,-0.138 0.454,-0.155C0.469,-0.172 0.476,-0.191 0.476,-0.212C0.476,-0.235 0.468,-0.255 0.454,-0.271C0.439,-0.287 0.417,-0.295 0.389,-0.295L0.25,-0.295L0.25,-0.13ZM0.25,-0.422L0.38,-0.422C0.407,-0.422 0.428,-0.429 0.442,-0.444C0.455,-0.458 0.462,-0.476 0.462,-0.497C0.462,-0.518 0.455,-0.536 0.442,-0.55C0.428,-0.563 0.407,-0.57 0.38,-0.57L0.25,-0.57L0.25,-0.422Z" style="fill:rgb(178,64,31);fill-rule:nonzero;"/>
            </g>
            <g transform="matrix(42.8389,0,0,42.8389,1459.99,629.311)">
                <path d="M0.356,0.01C0.295,0.01 0.241,0 0.196,-0.02C0.151,-0.04 0.115,-0.07 0.09,-0.111C0.065,-0.151 0.051,-0.201 0.048,-0.262C0.047,-0.291 0.047,-0.32 0.047,-0.349C0.047,-0.378 0.047,-0.406 0.048,-0.435C0.051,-0.495 0.065,-0.546 0.091,-0.587C0.116,-0.628 0.152,-0.658 0.198,-0.679C0.243,-0.7 0.296,-0.71 0.356,-0.71C0.417,-0.71 0.47,-0.7 0.515,-0.679C0.56,-0.658 0.596,-0.628 0.622,-0.587C0.648,-0.546 0.662,-0.495 0.664,-0.435C0.665,-0.406 0.666,-0.378 0.666,-0.349C0.666,-0.32 0.665,-0.291 0.664,-0.262C0.662,-0.201 0.648,-0.151 0.623,-0.111C0.597,-0.07 0.561,-0.04 0.516,-0.02C0.471,0 0.417,0.01 0.356,0.01ZM0.356,-0.134C0.391,-0.134 0.42,-0.145 0.443,-0.166C0.465,-0.187 0.477,-0.221 0.478,-0.268C0.479,-0.297 0.48,-0.325 0.48,-0.351C0.48,-0.377 0.479,-0.404 0.478,-0.432C0.477,-0.463 0.471,-0.489 0.461,-0.509C0.45,-0.528 0.436,-0.543 0.418,-0.552C0.4,-0.561 0.379,-0.566 0.356,-0.566C0.333,-0.566 0.313,-0.561 0.295,-0.552C0.277,-0.543 0.263,-0.528 0.252,-0.509C0.241,-0.489 0.235,-0.463 0.234,-0.432C0.233,-0.404 0.233,-0.377 0.233,-0.351C0.233,-0.325 0.233,-0.297 0.234,-0.268C0.236,-0.221 0.248,-0.187 0.271,-0.166C0.293,-0.145 0.321,-0.134 0.356,-0.134Z" style="fill:rgb(178,64,31);fill-rule:nonzero;"/>
            </g>
            <g transform="matrix(42.8389,0,0,42.8389,1489.17,629.311)">
                <path d="M0.033,-0C0.027,-0 0.022,-0.002 0.018,-0.007C0.013,-0.011 0.011,-0.016 0.011,-0.021C0.011,-0.023 0.011,-0.025 0.012,-0.027C0.013,-0.029 0.014,-0.031 0.015,-0.033L0.233,-0.357L0.031,-0.667C0.029,-0.671 0.028,-0.675 0.028,-0.679C0.028,-0.684 0.03,-0.689 0.034,-0.694C0.038,-0.698 0.043,-0.7 0.049,-0.7L0.194,-0.7C0.204,-0.7 0.212,-0.698 0.217,-0.693C0.222,-0.688 0.226,-0.683 0.229,-0.679L0.348,-0.498L0.469,-0.679C0.472,-0.683 0.476,-0.688 0.481,-0.693C0.486,-0.698 0.494,-0.7 0.504,-0.7L0.642,-0.7C0.647,-0.7 0.652,-0.698 0.657,-0.694C0.661,-0.689 0.663,-0.684 0.663,-0.679C0.663,-0.674 0.662,-0.67 0.659,-0.667L0.456,-0.358L0.676,-0.033C0.677,-0.031 0.678,-0.029 0.679,-0.027L0.679,-0.021C0.679,-0.016 0.677,-0.011 0.673,-0.007C0.669,-0.002 0.664,-0 0.658,-0L0.509,-0C0.499,-0 0.491,-0.003 0.486,-0.008C0.48,-0.012 0.476,-0.017 0.474,-0.02L0.342,-0.212L0.211,-0.02C0.209,-0.017 0.205,-0.012 0.2,-0.008C0.195,-0.003 0.187,-0 0.177,-0L0.033,-0Z" style="fill:rgb(178,64,31);fill-rule:nonzero;"/>
            </g>
        </g>
    </g>
</svg>
